<svg xmlns="http://www.w3.org/2000/svg" viewBox="0 0 70.87 27.85"><defs><style>.cls-1{fill:#fff;}</style></defs><title>flag</title><g id="Layer_2" data-name="Layer 2"><g id="Layer_1-2" data-name="Layer 1"><path class="cls-1" d="M2.21,16.59l-.1,0H2l-.05,0h-.1a.14.14,0,0,1-.13,0l-.06,0H1.45l-.18,0h0l-.13,0H1a.26.26,0,0,1-.14,0H.75l-.09,0-.12,0H.43L.3,16.48h0a.16.16,0,0,1-.08-.1v-.07l.06-.1,0-.06,0-.13,0-.08v-.18l0-.09,0-.08,0-.1.06-.11,0,0,0-.1.08-.07,0,0a.3.3,0,0,1,.09-.1h0l.12-.12,0-.07v0a.26.26,0,0,1,.09-.1l0,0L1,14.6l.09-.08a.51.51,0,0,1,.12-.13l.06,0,0-.08.11,0,.1-.13s.06-.09.08-.1l0,0,.08-.06c0-.09,0-.13.05-.14h0L2,13.66l0,0,.09-.08,0,0,0-.08.1-.12.13-.19h0A.38.38,0,0,1,2.45,13l0,0,0-.22,0-.09,0-.06a.5.5,0,0,1,0-.12v-.05l-.11-.07-.1,0-.07,0H1.76l-.11,0H1.51l-.12.1-.11,0a.2.2,0,0,1-.1.08l-.05,0,0,0a.24.24,0,0,1-.12.09l0,0,0,.05-.08.08q-.09.12-.15.12H.59L.5,12.74l0,0-.06-.08L.3,12.5l-.08,0,0-.08-.05-.08h0a.29.29,0,0,1-.12-.2V12l.11-.1.05-.06,0-.07.09-.07a.44.44,0,0,1,.15-.1l.06,0,.05-.06.13,0,0-.05,0,0,.13-.06h0l0,0a.41.41,0,0,1,.16,0h.05l.05-.08.1,0a.28.28,0,0,1,.19-.08H2l.07,0h.09l.14.06h.12l.06,0,.21.07h.13a.38.38,0,0,1,.15.09l.06,0,0,0,.13.1.06,0,.07.05.08.11h0a.46.46,0,0,1,.11.12v0l.08.07,0,.09,0,.06a.33.33,0,0,1,.07.15l0,.06,0,0,0,.14v.49l0,.06a.37.37,0,0,1-.06.1l0,0,0,.16a.73.73,0,0,1,0,.12l0,0c0,.07-.08.12-.11.13l0,0a.49.49,0,0,1-.1.16l0,0,0,.13L3,14.13l-.1.13a.26.26,0,0,1-.08.11l0,0-.05,0a.32.32,0,0,1-.09.08l0,0-.06,0,0,0a.36.36,0,0,1-.08.12l-.06.06-.07,0L2.28,15,2.21,15h0l-.07.07-.07.05-.1.09a.19.19,0,0,1-.09.13l-.06,0,.06.08.07,0h.15l.12,0h0l.13,0,.13,0h.12a.26.26,0,0,1,.15,0l.05,0c.09,0,.15,0,.17,0l0,0,.14,0h0l.13,0,.06,0,.1,0,.07,0c.11.05.16.1.16.14v.08l0,.07v.06a.37.37,0,0,1,0,.11v.39a.12.12,0,0,1,0,.08s0,.06,0,.07l-.06,0h-.2l-.09,0h0l-.11.06-.1,0H3l-.14,0-.07,0h0a.49.49,0,0,1-.14,0H2.21Z"/><path class="cls-1" d="M7.05,16.68l0,0,0,0-.13,0-.13-.05h0a.17.17,0,0,1-.1,0l-.06,0H6.42l-.07,0-.1-.08-.09,0,0,0L6,16.29l0,0-.08-.08a.52.52,0,0,1-.13-.12l0-.06,0,0-.07-.12-.08-.06s0,0,0,0v0l-.07-.14a.24.24,0,0,1-.1-.11l0-.07,0-.11-.06,0h0a.44.44,0,0,1,0-.19V15l0,0,0-.05a.46.46,0,0,1-.06-.16v-.06l0-.06v-.25a1.07,1.07,0,0,1,0-.16v0L5,14l0-.21v-.15a.37.37,0,0,1,0-.14l0,0,0-.1,0-.11v0l0-.1.07-.1V13l0-.06s0,0,0,0l0,0,0-.07a.22.22,0,0,1,0-.09.22.22,0,0,1,0-.1l0-.05,0-.11.09-.07v-.08l0,0a.91.91,0,0,1,.06-.11l0,0L5.59,12l.07-.09.09-.12c0-.07.06-.11.1-.12l.06,0,.18-.12a.17.17,0,0,1,.1-.09h.08l.1,0,.08,0a.19.19,0,0,1,.13-.06h0l.16,0a.11.11,0,0,1,.12,0H7.1q.21-.06.24,0l0,0h.07l.13,0h0l.11,0,.08.05.11,0,.1.06.06,0,.05,0,.08,0,.07.08.08,0,.13.1a.36.36,0,0,1,.08.09l0,.07.06.07a.64.64,0,0,1,.12.14v0l.08.05,0,.1A.36.36,0,0,1,9,12.4v0l.05.08a.46.46,0,0,1,.07.18v0l0,.08,0,.15.07.13a.17.17,0,0,1,0,.1v.08l.05.09v.12l0,.1c0,.09,0,.15,0,.16l0,0,0,.15a.48.48,0,0,1,0,.17v.12l0,.16v.2c0,.09,0,.14-.05.15l0,0-.06.13a.41.41,0,0,1,0,.07l0,.06,0,.05-.06.13L9,15.3a.64.64,0,0,1,0,.15l0,0-.07.13a.32.32,0,0,1-.07.13l0,0-.07.05L8.68,16l0,.05-.05.05-.06.05-.06.07a.4.4,0,0,1-.1.12l0,0-.09,0-.14.07-.07,0-.1.05-.16.06H7.6a.29.29,0,0,1-.15.06H7.38l-.08,0H7.05Zm.35-1.17.14,0H7.6l.07-.11.06-.06.08-.1.05-.1,0-.08A.6.6,0,0,1,8,14.84l0,0,0-.13,0-.09,0-.14c0-.08,0-.13,0-.14l0,0v-.15h0a.47.47,0,0,1,0-.16v-.3l0-.11,0-.05v-.06a.39.39,0,0,1,0-.13v-.19l0-.06,0-.16-.06-.09,0-.08,0-.07-.09-.09-.08-.11,0-.06c-.09,0-.14-.05-.16-.08l0,0-.11,0-.21.05-.09,0-.13,0-.11.1a.17.17,0,0,1-.06.06l-.07.05a.3.3,0,0,1,0,.16l0,0,0,.09v0a.66.66,0,0,1-.06.12l0,.06,0,.07v.12l0,.12,0,.14h0a.49.49,0,0,1,0,.11l0,.06,0,.1,0,.27,0,.08v.09l0,.1v.33l0,.11,0,.15.07,0,.07.12,0,.07.07.12.07.06.06.1.06,0,.14,0,.28.05Z"/><path class="cls-1" d="M64.34,16.67h-.2l0,0H64a.16.16,0,0,1-.12.05l-.06,0h-.22l-.17,0,0,0-.14,0h-.12a.32.32,0,0,1-.14,0h-.09l-.1-.05-.11,0h-.11l-.13-.07h0a.16.16,0,0,1-.07-.11V16.4l.06-.1,0-.06,0-.13,0-.08v-.27l0-.08,0-.1a.3.3,0,0,1,.06-.11l0,0,0-.1.08-.07,0,0,.1-.09,0,0,.13-.11,0-.07,0,0,.08-.1,0,0,.07-.09.1-.08a.37.37,0,0,1,.11-.13l.06,0,0-.07.11,0,.09-.13.08-.1.06,0,.07-.07c0-.08,0-.13.06-.13h0l.11-.11,0,0,.09-.09,0,0,0-.07.1-.12.13-.19h0l.1-.12,0,0,0-.21,0-.1,0-.05a1.11,1.11,0,0,1,0-.13v-.05l-.1-.06-.11,0-.06,0h-.33l-.1,0h-.14l-.12.1-.11,0a.39.39,0,0,1-.1.08h-.06l0,0a.41.41,0,0,1-.12.09l-.06,0,0,0-.09.09c0,.08-.1.12-.14.12h-.07l-.08-.12-.06,0,0-.07-.09-.14-.08,0,0-.08-.05-.07h0c-.08-.09-.12-.15-.11-.21v-.08l.11-.09,0-.07.05-.06.09-.07a.33.33,0,0,1,.14-.1l.07,0,.05-.07.12,0,0-.05,0,0a.26.26,0,0,1,.13-.06l0,0h0l.15,0h0l0-.08.1,0a.34.34,0,0,1,.19-.08h.58l.15.06,0,0,.06,0,.07,0,.21.07h.13a.37.37,0,0,1,.14.08l.07.06h0l.12.11.06,0,.07.05.08.11h0l.1.11,0,0,.08.08,0,.09,0,.06a.59.59,0,0,1,.07.14l0,.07,0,0v.37a.11.11,0,0,0,0,.05.18.18,0,0,1,0,.06v.15l0,.06a.37.37,0,0,1-.06.1l0,0,0,.15a.32.32,0,0,1,0,.13l0,0a.49.49,0,0,1-.11.14h0a.38.38,0,0,1-.11.16l0,0,0,.13-.17.09-.09.13-.08.11,0,0,0,0-.08.08,0,0-.07.06,0,0a.34.34,0,0,1-.09.12l0,.06-.07,0-.06.12-.08.06h0s0,0,0,0l-.06.07-.08.05-.09.09a.27.27,0,0,1-.09.13l-.06,0,.06.08h.07l.15,0,.12,0h0l.13,0,.13,0h.11a.27.27,0,0,1,.15,0h0c.1,0,.15,0,.17,0l0,0,.14,0h.17l.06,0h.1l.07,0c.11.05.16.09.16.14v.08l0,.07V16a.25.25,0,0,1,0,.1v.4a.19.19,0,0,1,0,.07.1.1,0,0,1,0,.08l-.06,0h-.29l0,0-.1.06-.11,0h-.1l-.15,0-.06,0h-.05l-.15,0h-.36Z"/><path class="cls-1" d="M69.32,16.67h-.2l-.05,0H69a.16.16,0,0,1-.12.05l-.06,0h-.22l-.17,0,0,0-.14,0H68.1a.33.33,0,0,1-.15,0h-.08l-.1-.05-.11,0h-.11l-.13-.07h0a.16.16,0,0,1-.07-.11V16.4l.06-.1,0-.06,0-.13,0-.08v-.27l0-.08,0-.1a.3.3,0,0,1,.06-.11l0,0,0-.1.08-.07,0,0a.38.38,0,0,1,.09-.09l0,0L67.9,15l0-.07v0l.09-.1,0,0,.07-.09.1-.08a.29.29,0,0,1,.11-.13l.06,0,0-.07.11,0,.09-.13.08-.1.06,0,.07-.07c0-.08,0-.13.06-.13h0l.12-.11,0,0,.09-.09,0,0,0-.07.1-.12.13-.19h0l.1-.12,0,0,0-.21,0-.1,0-.05a.39.39,0,0,1,0-.13v-.05l-.11-.06-.1,0-.06,0h-.33l-.11,0h-.13l-.13.1-.11,0a.21.21,0,0,1-.1.08h-.05l0,0a.44.44,0,0,1-.13.09l0,0,0,0-.09.09q-.07.12-.15.12H67.7l-.09-.12,0,0-.06-.07-.08-.14-.08,0,0-.08s-.05-.06-.05-.07h0c-.08-.09-.12-.15-.12-.21v-.08l.11-.09,0-.07,0-.06.1-.07a.33.33,0,0,1,.14-.1l.07,0,.05-.07.12,0,0-.05,0,0a.38.38,0,0,1,.13-.06l0,0h0l.15,0h0l0-.08.1,0a.34.34,0,0,1,.19-.08h.58l.14.06.06,0,.06,0,.06,0,.21.07h.13a.35.35,0,0,1,.15.08l.06.06h0l.12.11.06,0,.07.05.08.11h0l.1.11v0l.08.08,0,.09,0,.06c0,.06.06.11.07.14l0,.07,0,0V13s0,0,0,.06v.15l0,.06a.37.37,0,0,1-.06.1l0,0,0,.15a.32.32,0,0,1,0,.13l0,0a.49.49,0,0,1-.11.14h0a.51.51,0,0,1-.11.16l0,0,0,.13-.17.09-.09.13-.08.11,0,0,0,0-.09.08,0,0-.06.06,0,0-.09.12-.06.06-.06,0-.07.12-.07.06h0a0,0,0,0,1,0,0l-.07.07-.07.05-.09.09a.28.28,0,0,1-.1.13l0,0,0,.08h.08l.15,0,.11,0h0l.13,0,.13,0h.12a.27.27,0,0,1,.15,0h0c.09,0,.15,0,.17,0l0,0,.14,0h.17l.05,0h.11l.07,0c.1.05.16.09.16.14v.08l0,.07V16a.25.25,0,0,1,0,.1v.4a.19.19,0,0,1,0,.07.1.1,0,0,1,0,.08l-.06,0h-.29l0,0-.1.06-.11,0h-.1l-.15,0-.06,0h0l-.15,0h-.36Z"/><path class="cls-1" d="M56.2,2C49.27-1.48,42.38.28,35.68,2s-13,3.31-19.43.05a.8.8,0,0,0-.72,0,.75.75,0,0,0-.35.64V25.17a.75.75,0,0,0,.4.66,19,19,0,0,0,8.78,2,48.23,48.23,0,0,0,11.74-2c6.71-1.7,13-3.29,19.43-.05a.74.74,0,0,0,.72,0,.75.75,0,0,0,.35-.63V2.69A.76.76,0,0,0,56.2,2ZM29.05,11.85A.28.28,0,0,1,29,12l-.06.1h-.12l-.17,0h-.07l-.1,0-.17,0h-.17L28,12l-.12.05-.17,0h-.32l-.09,0-.21.14.08.1-.06.12v.24a.62.62,0,0,1,0,.22V13l0,.07,0,.22v.13a1,1,0,0,1,0,.12l0,.08.08.13-.05.17V14a1,1,0,0,1,0,.19s0,.07,0,.08l0,.05v.12l0,.16,0,.18v.07a.88.88,0,0,1,0,.16l0,.1a.52.52,0,0,1,0,.21l0,0v.22a.59.59,0,0,1,0,.21V16l-.07.16a.3.3,0,0,1,0,.1.11.11,0,0,1,0,.08l0,.07a.93.93,0,0,1,.07.26v.22l0,.14,0,.18v.07a.41.41,0,0,1,0,.12l0,.12a.45.45,0,0,1,0,.22l0,0-.15.13a.62.62,0,0,0-.18,0l-.08,0h-.16l-.13,0-.11,0-.08,0L26.1,18,26,18h0a.57.57,0,0,1-.22,0l-.05,0-.16,0-.1,0a.3.3,0,0,1-.11,0,.28.28,0,0,1-.08-.15v-.09h0v-.09a.38.38,0,0,1,0-.14l0-.06a1,1,0,0,1,0-.18s0-.07,0-.08l0-.07-.06-.11v-.24l0-.05v-.34a.5.5,0,0,1,0-.12l0-.08,0-.09a.54.54,0,0,1,0-.25l0,0,0-.15,0-.21,0-.08,0,0a.75.75,0,0,1,0-.23v-.1l.05-.09v-.22a.56.56,0,0,1,0-.22l0-.09,0-.07v-.1a.53.53,0,0,1,0-.14V13.9l0-.18,0-.14,0-.17v0a1.29,1.29,0,0,1,0-.19v-.29a.27.27,0,0,1,0-.12l0-.08v-.35l-.07-.15L25.07,12H24.9l-.07.05-.15,0a.26.26,0,0,1-.14,0l-.09,0-.14,0h-.13l-.17,0h-.52c-.13-.12-.21-.21-.21-.27v-.3l0-.2v-.15a.41.41,0,0,1-.05-.19v-.08a.27.27,0,0,1,.11-.25l.1-.06.08,0,.2,0h.39l.08,0,.09,0h.08a1.19,1.19,0,0,1,.22,0l.07,0,.12,0,.19,0,.3,0h.14a.93.93,0,0,1,.22,0h.09l.13.06a.33.33,0,0,1,.21-.08h.07l.15,0,.15,0a.54.54,0,0,1,.26-.05l.1,0,.15,0,.16,0a.53.53,0,0,1,.2,0h.53l.09,0,.15,0h.06l.18,0,.14,0,.08-.05h0a.62.62,0,0,1,.23,0l.1,0,0,0,.09.19,0,.2,0,.14c0,.15.05.24,0,.26l0,0,.07.18-.07.19S29.05,11.83,29.05,11.85Zm9.75,2.47,0,.09,0,.17v.05l0,.1,0,.17,0,.14,0,.18v.34l0,.09v.22a.34.34,0,0,1,0,.17l0,.05.06.23v.34a.42.42,0,0,1,0,.18l0,.07v.16a.19.19,0,0,1,0,.07.14.14,0,0,1-.06.11l-.1.09H38.4l-.13,0H38l-.07,0-.14,0h-.16l-.12,0-.06,0H37.4a.59.59,0,0,1-.28,0l-.09,0a.47.47,0,0,1-.09-.12s0-.07,0-.09l0-.07a.77.77,0,0,1,0-.23l0,0v-.22l0-.1,0-.18a.45.45,0,0,1,0-.13.22.22,0,0,1,0-.09l0-.09,0-.12a.65.65,0,0,1,0-.24l0,0,0-.18v-.05a.72.72,0,0,1,0-.17l0-.07v-.22a.38.38,0,0,1,0-.18l0,0,0-.17v-.12l0-.23,0,.05v.12l-.1.18,0,.16v0a.7.7,0,0,0,0,.14l0,0-.12.17-.07.17a.17.17,0,0,1,0,.08.32.32,0,0,1,0,.14l0,.1,0,.11-.08.14,0,.18,0,.13,0,.12,0,.1,0,.09,0,.08-.06.19a.25.25,0,0,1-.18.19l-.13.05h-.09l-.15,0h-.13a.47.47,0,0,1-.16,0h-.06L35,16.83h-.17a.34.34,0,0,1-.18,0h-.08a.42.42,0,0,1-.14,0,.2.2,0,0,1-.16-.06l-.07-.08-.06-.13L34,16.4a.33.33,0,0,1-.05-.18v-.08l0-.12-.07-.16,0-.11-.09-.21,0,0v0l0-.2,0-.07L33.58,15a.37.37,0,0,1,0-.16l0-.08-.06-.11,0-.16,0-.08v0a1.24,1.24,0,0,1-.12-.24v-.08h0l0,.14.05.13a.71.71,0,0,1,0,.16c0,.07,0,.12,0,.14l0,.1.07.07-.06.17v.38a.43.43,0,0,1,0,.19v.09l0,.17a.28.28,0,0,1,0,.2l0,.18v.22l0,.08a.88.88,0,0,1,0,.2s0,.07,0,.08l0,.08.07.17a.27.27,0,0,1-.12.19l-.09,0-.11.07-.17,0-.21,0h-.07a.33.33,0,0,1-.15,0l-.08,0h-.1l-.16,0h-.39c-.12,0-.19,0-.22-.07s0-.09-.08-.17l0-.09v-.16a.58.58,0,0,1,0-.21l0-.07,0-.14,0-.18v-.15h0a1.72,1.72,0,0,1,0-.2l0-.12-.05-.06,0-.21h0l0-.14v-.13a.32.32,0,0,1,0-.23l0-.09v-.16a.76.76,0,0,1-.05-.19V14.5l0-.15,0-.19V14a.9.9,0,0,1,0-.21l0-.11,0-.13,0-.13a.61.61,0,0,1,0-.15s0-.08,0-.1l0-.1,0-.16,0-.07,0-.2v-.17l0-.11v-.3a.62.62,0,0,1,0-.23l0-.06a.72.72,0,0,1,0-.17.77.77,0,0,1,0-.1l0-.08-.06-.12,0-.11,0-.21a.54.54,0,0,1,0-.2l0-.08v-.42a.38.38,0,0,1,.07-.24l.08-.1h.12l.18.05.15,0L32,9.92l.21,0a.4.4,0,0,1,.24,0l.08,0,.1,0,.15,0,.14,0H33c.11,0,.18,0,.21.08l.08.09,0,.09.06.13,0,.19.07.14.09.2a.46.46,0,0,1,.07.16l0,.08,0,.16.09.14,0,.11,0,.05,0,.12,0,.1.06.15V12l0,.13.05.18.11.13,0,.1v.05l.05.16,0,.15.09.14,0,.14a.25.25,0,0,1,.08.17v.1l.07.15a.36.36,0,0,1,.07.22v.09l.06.1.05.16,0,.1.1.25a.37.37,0,0,1,.07.18v.07l0,.17h.15l0-.15,0-.13,0-.09c0-.06,0-.09,0-.1l.1-.17,0-.12a.3.3,0,0,1,.07-.2l.07-.09a.19.19,0,0,1,0-.08.22.22,0,0,1,0-.17l.06-.06v0c0-.09,0-.16,0-.21s0-.08,0-.1l0,0,.09-.19.06-.11,0-.16,0-.08a.49.49,0,0,1,.1-.16l0-.06v-.13l.09-.14,0-.16.05-.18,0-.11v0a1,1,0,0,1,.1-.21l0,0v-.14l.08-.17.09-.27.08-.16,0-.18.06-.14.07-.19s0-.07.1-.13L37,10,37,10a.6.6,0,0,1,.24-.08h.07l.13.06.11,0,.21,0H38l.07,0h.19a.23.23,0,0,1,.21,0l.09,0,.1-.05q.21.22.18.3l0,.07v.15a.55.55,0,0,1,0,.17v.06l0,.16,0,.19v.3l0,.12v.11a.45.45,0,0,1,0,.14v0l0,.24v0l0,.13,0,.12,0,.07,0,.18v.07a1,1,0,0,1,0,.15v.13l0,.07v.17l0,.15v.18l0,.19,0,.14,0,.08,0,.17-.05.21Zm9.7,0,0,.17v0l0,.16-.06.14V15a1.52,1.52,0,0,1,0,.19l0,0,0,.15-.1.13h0a.46.46,0,0,1-.06.23L48,16l-.07.09,0,.05a.42.42,0,0,1-.11.15l-.06.06-.08.16,0,.07,0,0a.61.61,0,0,1-.16.16l-.07.05-.06.16h-.19l-.05.18-.1.06-.07,0-.1.05h-.13l-.14.11-.13.06-.14.05h-.06l-.17.09a.38.38,0,0,1-.18,0l-.1,0-.1.1a.53.53,0,0,1-.27,0l-.11,0-.09.06h-.1a.91.91,0,0,1-.23,0l-.13,0-.14,0h0l-.27,0,0,0-.16,0-.22-.12h-.08l-.12,0-.07,0-.15,0h-.09l-.21-.15L43,17.33a.49.49,0,0,1-.22-.06l-.06,0-.08-.07L42.55,17a.29.29,0,0,1-.17-.1l-.05-.07c-.13-.07-.19-.13-.2-.18l0-.09L42,16.44a.38.38,0,0,1-.16-.14l0-.07a.38.38,0,0,1-.15-.22v-.07l-.12-.06,0-.19v0l0-.13a1,1,0,0,1-.09-.17v0l-.06-.17,0-.14a.54.54,0,0,1,0-.25l0-.09,0-.12a.77.77,0,0,1-.06-.23v-.06l0-.2,0-.14a.88.88,0,0,1,0-.2v-.08l.09-.15v-.27a.25.25,0,0,1,0-.12l0-.05,0-.16V12.8l0-.14,0-.07,0-.1.06-.15,0-.05.08-.19a.42.42,0,0,1,0-.21l0-.06,0-.08.15-.17a.29.29,0,0,1,.12-.15l.07,0,0-.13.14-.12c0-.09.05-.15.09-.17l.07,0,.15-.09.14-.11c.07-.1.12-.15.15-.16h0l.15-.11h.14l0,0a.63.63,0,0,1,.19-.13l.06,0,.17,0,.16-.07h0a.54.54,0,0,1,.19,0l.21,0h.18l.13,0a.42.42,0,0,1,.14,0,.5.5,0,0,1,.15,0l.15,0a.49.49,0,0,1,.28,0l.11,0,.12,0h.16a.37.37,0,0,1,.18,0l.08.05h0a.58.58,0,0,1,.22,0l0,0,.15,0,.09.05.08,0,.08,0,0,.05h.09l.15.16.13.11.11.07c.13,0,.19.06.2.11l0,.09,0,0a.92.92,0,0,1,.16.14l0,.06.08.13a.27.27,0,0,1,.15.15l0,.09.14.06v.15L48,12c.09.09.14.16.14.21l0,.07,0,.14v.23a.26.26,0,0,1,.09.18v.08l0,.12a.34.34,0,0,1,.05.2v.31l0,.14.05.12v.06a.66.66,0,0,1,0,.15.47.47,0,0,1,0,.17l0,.09Z"/><path class="cls-1" d="M46.57,13.8l0-.22,0-.1v-.21l-.05-.09,0-.2-.05-.09,0-.07s0-.06,0-.12l0-.08-.05-.2-.07-.09-.12-.17C46,12.1,46,12.06,46,12v0l-.14-.12-.15-.07-.14-.08a.57.57,0,0,1-.19-.08l-.07,0-.15,0-.13,0h-.56l-.16,0-.2.12,0,0a1.06,1.06,0,0,1-.22.18h-.06l-.14.18a.33.33,0,0,1-.09.14l-.05,0-.08.13a.33.33,0,0,1-.06.2l0,.06,0,.16,0,.08a1,1,0,0,1-.07.19l0,.06,0,.15,0,.11,0,.18,0,.16v.28l0,.13v.17l.08.18,0,.12v.14l0,.17.07.17,0,.11a.22.22,0,0,1,.11.16v.08l.16.15a.38.38,0,0,1,.1.12l0,.05.16.17L44,16l.14.08.14,0,.12.05.07,0,.11.07.46,0,.13-.07a.39.39,0,0,1,.2,0l.09,0,.08-.09.17-.09h0l.09-.05.16-.11.05-.08,0-.11.08-.13.12-.15.07-.13.07-.13,0-.17.06-.12v-.07a.64.64,0,0,1,0-.2l0-.08v-.15a.45.45,0,0,1,0-.18v-.06Z"/></g></g></svg>