<svg xmlns="http://www.w3.org/2000/svg" viewBox="0 0 127.56 19.7"><defs><style>.cls-1{fill:#fff;}</style></defs><title>logo</title><g id="Layer_2" data-name="Layer 2"><g id="Layer_1-2" data-name="Layer 1"><path class="cls-1" d="M3,6.59.32,6a.48.48,0,0,1-.26-.18.42.42,0,0,1,0-.31l.47-2a.36.36,0,0,1,.18-.24A.48.48,0,0,1,1,3.17l8.56,2a.44.44,0,0,1,.26.18.38.38,0,0,1,.05.31l-.46,2a.41.41,0,0,1-.19.24A.42.42,0,0,1,8.88,8L6.2,7.34c-.13,0-.21,0-.25.16L3.5,18.06a.45.45,0,0,1-.2.25.35.35,0,0,1-.3.05L1,17.9a.48.48,0,0,1-.26-.18.42.42,0,0,1-.05-.31L3.16,6.85A.2.2,0,0,0,3,6.59Z"/><path class="cls-1" d="M15.33,5.76l0,5.12q0,.19.21.21l3.11,0a.18.18,0,0,0,.2-.21l0-5.12A.41.41,0,0,1,19,5.46a.43.43,0,0,1,.28-.13h2a.42.42,0,0,1,.3.12.38.38,0,0,1,.12.29l.07,13.51a.4.4,0,0,1-.12.29.38.38,0,0,1-.29.12h-2a.38.38,0,0,1-.28-.12.44.44,0,0,1-.14-.29l0-5.11c0-.14-.07-.2-.21-.2l-3.1,0c-.14,0-.21.06-.21.2l0,5.11a.39.39,0,0,1-.16.3.57.57,0,0,1-.35.12H13a.38.38,0,0,1-.28-.12.46.46,0,0,1-.13-.29L12.46,5.78a.38.38,0,0,1,.12-.28.41.41,0,0,1,.29-.13h2.05a.34.34,0,0,1,.28.11A.46.46,0,0,1,15.33,5.76Z"/><path class="cls-1" d="M28,7.44l.56,2.38a.19.19,0,0,0,.25.16l4.48-1.06a.35.35,0,0,1,.3.05.4.4,0,0,1,.19.25l.47,2a.41.41,0,0,1-.05.3.46.46,0,0,1-.26.19l-4.47,1.06a.19.19,0,0,0-.16.24l.57,2.39a.18.18,0,0,0,.25.15l4.72-1.11a.41.41,0,0,1,.3.06.45.45,0,0,1,.19.24l.47,2a.37.37,0,0,1-.05.31.4.4,0,0,1-.25.19L28.15,19a.41.41,0,0,1-.3-.06.44.44,0,0,1-.19-.25L24.55,5.5a.41.41,0,0,1,.06-.3A.4.4,0,0,1,24.86,5L32.09,3.3a.36.36,0,0,1,.3.05.4.4,0,0,1,.19.25l.48,2a.48.48,0,0,1-.07.3.41.41,0,0,1-.24.19l-4.64,1.1A.19.19,0,0,0,28,7.44Z"/><path class="cls-1" d="M56.49,4.59c.09,0,.15,0,.19-.16l1.21-4a.4.4,0,0,1,.44-.34l2.86.05a.39.39,0,0,1,.28.12.42.42,0,0,1,.12.3L61.35,14.1a.43.43,0,0,1-.13.28.41.41,0,0,1-.3.12l-2,0a.4.4,0,0,1-.29-.12.42.42,0,0,1-.12-.3l.15-8.1a.14.14,0,0,0-.05-.09s-.07,0-.11.07L57.45,9a.43.43,0,0,1-.43.34l-1.21,0a.46.46,0,0,1-.42-.36l-.93-3.09c0-.08-.07-.1-.11-.07a.14.14,0,0,0-.05.09L54.15,14a.36.36,0,0,1-.13.29.4.4,0,0,1-.29.12l-2,0a.39.39,0,0,1-.28-.13.46.46,0,0,1-.13-.29L51.53.4a.47.47,0,0,1,.14-.28A.44.44,0,0,1,52,0l2.86.05a.42.42,0,0,1,.43.36l1.07,4C56.34,4.53,56.39,4.59,56.49,4.59Z"/><path class="cls-1" d="M66.26,15.2l-2.1-.48a.36.36,0,0,1-.31-.49L70.42,1.76a.35.35,0,0,1,.44-.22l2.68.6a.36.36,0,0,1,.31.39l.57,14.08a.29.29,0,0,1-.13.27.47.47,0,0,1-.36,0l-2.09-.47a.38.38,0,0,1-.31-.39l-.17-2.2c0-.21-.08-.33-.22-.36l-3-.68c-.16,0-.28,0-.36.23l-1,1.93A.36.36,0,0,1,66.26,15.2Zm3.09-5,1.83.41c.15,0,.22,0,.22-.18l.11-5a.1.1,0,0,0-.08-.1h0a.11.11,0,0,0-.12.06l-2,4.57C69.17,10,69.2,10.13,69.35,10.16Z"/><path class="cls-1" d="M81.82,18.91l-4.25-.67a.45.45,0,0,1-.27-.17.4.4,0,0,1-.07-.3L79.36,4.43a.35.35,0,0,1,.16-.26.42.42,0,0,1,.31-.09l4.24.68a4.08,4.08,0,0,1,2.84,1.78,5.44,5.44,0,0,1,1,3.41A22.93,22.93,0,0,1,87,15.16a5.54,5.54,0,0,1-2,2.94A4.06,4.06,0,0,1,81.82,18.91Zm-1.17-3.09,1.62.26a1.56,1.56,0,0,0,1.2-.29,2,2,0,0,0,.72-1.08A23.1,23.1,0,0,0,85,9.5a2,2,0,0,0-.35-1.25,1.51,1.51,0,0,0-1-.66L82,7.34c-.13,0-.21,0-.23.17l-1.29,8.08A.18.18,0,0,0,80.65,15.82Z"/><path class="cls-1" d="M104.16,5.34a4.52,4.52,0,0,1,2.89-2.12,4.51,4.51,0,0,1,3.57.38,5.25,5.25,0,0,1,2.32,2.71,23.51,23.51,0,0,1,1.49,5.54,5.27,5.27,0,0,1-.64,3.5,4.94,4.94,0,0,1-6.46,1.74A5.28,5.28,0,0,1,105,14.38a23.51,23.51,0,0,1-1.49-5.54A5.27,5.27,0,0,1,104.16,5.34ZM107.8,6a2,2,0,0,0-1.23.81,1.81,1.81,0,0,0-.25,1.29,23.72,23.72,0,0,0,1.49,5.55,1.84,1.84,0,0,0,.87,1,2.35,2.35,0,0,0,2.7-.73,1.88,1.88,0,0,0,.26-1.3,23.72,23.72,0,0,0-1.49-5.55,1.84,1.84,0,0,0-.87-1A2,2,0,0,0,107.8,6Z"/><path class="cls-1" d="M121.85,9.6h0a.13.13,0,0,0-.09.09l-1.37,5a.44.44,0,0,1-.4.36l-2.39.26a.37.37,0,0,1-.33-.15.42.42,0,0,1-.06-.38l2.25-7.11a.54.54,0,0,0,0-.44l-3.29-5.59a.43.43,0,0,1,0-.38.38.38,0,0,1,.29-.24L118.64.8a.42.42,0,0,1,.42.27l2.15,4c0,.06.07.08.11.07h0a.13.13,0,0,0,.09-.09l1.23-4.4c.07-.21.19-.33.35-.35l2.31-.25a.29.29,0,0,1,.31.15.48.48,0,0,1,.08.39l-2,6.19a.54.54,0,0,0,0,.45l3.73,6.42a.42.42,0,0,1,0,.39.32.32,0,0,1-.27.22l-2.41.26a.41.41,0,0,1-.46-.26L122,9.67C121.92,9.62,121.89,9.6,121.85,9.6Z"/></g></g></svg>