<svg xmlns="http://www.w3.org/2000/svg" viewBox="0 0 49.71 133.22"><defs><style>.cls-1{fill:#fff;}</style></defs><g id="Layer_2" data-name="Layer 2"><g id="Layer_1-2" data-name="Layer 1"><path class="cls-1" d="M49.71,69.07c0-6.87-2.09-10.46-5.86-14.69-.65-.72-1.33-1.39-2-2-3.07-3-6-5.83-6.29-14.64-.35-10-.91-22.93-1-25.57h0a36.19,36.19,0,0,1,.06-4.06,4.06,4.06,0,0,0-.26-2.76A5.18,5.18,0,0,0,31,2.85c-2.32-.74-3-1-3.34-1.08a12.05,12.05,0,0,0-1.38-.41c-1.12-.31-1.13-.31-1.47-.38s-1-.2-3.34-.76a5.13,5.13,0,0,0-4.09.42,4.23,4.23,0,0,0-1.79,2.78,1.75,1.75,0,0,0,1.24,2l.25,0a20.53,20.53,0,0,1,2.76.18A12.37,12.37,0,0,1,22.4,6.92a17.11,17.11,0,0,0,2,1,9.5,9.5,0,0,0,3.37.33,12.15,12.15,0,0,1,1.91.06,11.51,11.51,0,0,1,2,1,24.17,24.17,0,0,0-6.75-.74c-8.12,0-9.45,2-9.64,2.88l0,.17c0,.15-.65,15-1,26.06-.32,8.81-3.22,11.64-6.29,14.64-.66.65-1.34,1.32-2,2C2.1,58.61.05,62.2,0,69.07c0,6.71.29,20.14.29,20.26s.3,20,.67,25.73c0,.43,0,.89.06,1.38.23,6.27.61,16.78,23.84,16.78s23.6-10.51,23.83-16.78c0-.49,0-1,.06-1.38.37-5.72.67-25.53.67-25.72S49.75,75.78,49.71,69.07ZM28.42,6.29h-.7a9.27,9.27,0,0,1-2.59-.18,17.27,17.27,0,0,1-1.72-.92,12.72,12.72,0,0,0-3.1-1.49,19.1,19.1,0,0,0-2.64-.21,2.07,2.07,0,0,1,.83-1.18,3.34,3.34,0,0,1,2.55-.16c2.41.57,3.07.71,3.4.78a13.13,13.13,0,0,1,1.34.35c.94.26.94.26,1.26.37s1,.35,3.39,1.1A3.34,3.34,0,0,1,32.55,6.2a1.82,1.82,0,0,1,.15.54c0,.13,0,.42-.08.86A10.52,10.52,0,0,0,30,6.4,8.68,8.68,0,0,0,28.42,6.29Zm19,83c0,.2-.3,20-.66,25.63,0,.44,0,.93-.07,1.43-.21,5.92-.54,14.86-21.83,14.86S3.24,122.28,3,116.36c0-.5,0-1-.06-1.43-.37-5.67-.66-25.43-.67-25.64S2,75.76,2,69.08c0-6.27,1.84-9.42,5.36-13.37C8,55,8.58,54.42,9.25,53.77c3.06-3,6.54-6.39,6.89-16,.37-10.27.95-23.78,1-25.79.3-.29,1.8-1.39,7.68-1.39s7.37,1.1,7.67,1.39c.09,2,.67,15.52,1,25.79.34,9.61,3.82,13,6.88,16,.67.65,1.3,1.27,1.89,1.94,3.52,3.95,5.32,7.1,5.36,13.37C47.75,75.76,47.42,89.16,47.42,89.3Z"/><path class="cls-1" d="M29.07,40.5,27,18.18a1,1,0,0,0-2,.15l1.16,22.38a1.45,1.45,0,1,0,2.9-.21Z"/><path class="cls-1" d="M31.41,50.3a1.45,1.45,0,1,0-2.76.89L33.23,65.4a1.45,1.45,0,0,0,1.38,1,1.31,1.31,0,0,0,.44-.07A1.45,1.45,0,0,0,36,64.51Z"/></g></g></svg>