<svg xmlns="http://www.w3.org/2000/svg" viewBox="0 0 710.45 550.16"><defs><style>.cls-1{fill:#fff;}</style></defs><g id="Layer_2" data-name="Layer 2"><g id="Layer_1-2" data-name="Layer 1"><path class="cls-1" d="M342.87,439.61c0-5.31,4-9.63,8.9-9.63s8.91,4.32,8.91,9.63a2.84,2.84,0,0,0,2.65,2.84,2.78,2.78,0,0,0,3-2.45c0-.1,1.65-10.28,18.85-10.28,11.7,0,21.22,10.19,21.22,22.71a2.85,2.85,0,1,0,5.7,0c0-15.67-12.07-28.41-26.92-28.41-11.46,0-17.6,3.92-20.86,7.78a14.51,14.51,0,0,0-12.57-7.53c-8,0-14.61,6.88-14.61,15.34a2.86,2.86,0,0,0,5.71,0Z"/><path class="cls-1" d="M300.82,430.78a2.85,2.85,0,0,0-2.85-2.85H185.6a31.66,31.66,0,0,0,1.67-4.26,2.85,2.85,0,1,0-5.45-1.67c-3,9.76-11.45,16.31-21,16.31-10.12,0-18.93-7.33-21.43-17.84a2.85,2.85,0,0,0-1.85-2l-.85-.33a2.84,2.84,0,0,0-2.66.34,51.27,51.27,0,0,1-29.92,9.67c-26.33,0-48.64-20.07-53-47.73a2.85,2.85,0,0,0-3.38-2.34,35.27,35.27,0,0,1-7.1.72,34.58,34.58,0,0,1-7.08-68.49c.92,5.56,3.47,17,9.89,26.16A2.85,2.85,0,0,0,48,333.17c-7.36-10.51-9.15-25-9.33-26.61,0-31.58,24.19-57.27,53.86-57.27,22.29,0,42.54,15,50.38,37.26a2.86,2.86,0,0,0,4.72,1.06,29.68,29.68,0,0,1,21.16-9c13.36,0,25.09,9.07,29.27,22.6a104.35,104.35,0,0,1,0,15.26,2.85,2.85,0,0,0,2.65,3h.2a2.85,2.85,0,0,0,2.84-2.65,113.68,113.68,0,0,0,.14-14.51,20.67,20.67,0,0,1,8.28-1.77c11.72,0,21.32,9.8,22.07,22.13h-8a2.86,2.86,0,0,0,0,5.71h44.18a2.86,2.86,0,0,0,0-5.71H239.93c-.77-15.48-12.91-27.83-27.77-27.83a26,26,0,0,0-9.6,1.82c-5.62-14.36-18.82-23.8-33.74-23.8a35.05,35.05,0,0,0-22,7.84c-9.56-22.37-30.87-37.13-54.23-37.13-32.17,0-58.47,27.15-59.53,61a40.3,40.3,0,0,0,7.52,79.93,42,42,0,0,0,5.37-.35c5.87,29,29.91,49.7,58.15,49.7a56.82,56.82,0,0,0,30.63-9C138.7,436.28,149,444,160.78,444a27.18,27.18,0,0,0,21.32-10.49,2.47,2.47,0,0,0,.54.11H298A2.84,2.84,0,0,0,300.82,430.78Z"/><path class="cls-1" d="M238.7,441.16a2.85,2.85,0,0,0,2.85,2.85h79.82a2.85,2.85,0,1,0,0-5.7H241.55A2.86,2.86,0,0,0,238.7,441.16Z"/><path class="cls-1" d="M228.93,350.72a2.85,2.85,0,1,0,0,5.7h30.64a2.85,2.85,0,1,0,0-5.7Z"/><path class="cls-1" d="M129.72,369.37c8-6.39,19.24-7.6,29.31-3.18a29,29,0,0,1,13.3,21.24,2.85,2.85,0,0,0,4.46,2,14.68,14.68,0,0,1,8.39-2.66c8.55,0,15.49,7.46,15.49,16.62a2.85,2.85,0,1,0,5.7,0c0-12.31-9.5-22.32-21.19-22.32a20.06,20.06,0,0,0-7.91,1.62,34.47,34.47,0,0,0-15.45-21.47,1.82,1.82,0,0,0-.31-.16c-12.06-5.38-25.6-3.91-35.34,3.84s-13.66,19.75-11.06,33.16a2.85,2.85,0,1,0,5.6-1.08C118.52,385.72,121.81,375.66,129.72,369.37Z"/><path class="cls-1" d="M474.69,534.51c-3.19-2.87-9.21-6.08-19.68-5a24.07,24.07,0,0,0-5.28,1.08,27.18,27.18,0,0,0-12.13-16.3c-13.31-7-32.06-5.47-43.62,3.5-8.29,6.43-11.55,15.53-9.17,25.64a2.85,2.85,0,0,0,5.55-1.31c-2.35-10,2.57-16.3,7.12-19.83,9.74-7.56,26.2-8.86,37.33-3a21.49,21.49,0,0,1,10,15.85,2.85,2.85,0,0,0,4.46,2,13.28,13.28,0,0,1,6.36-1.94c6.64-.7,11.91.52,15.26,3.53a11.34,11.34,0,0,1,3.72,8.56,2.85,2.85,0,0,0,5.7,0A17,17,0,0,0,474.69,534.51Z"/><path class="cls-1" d="M627.66,434.76a2.85,2.85,0,0,0-1.21,5.58c10.64,2.3,18.19,8.93,20.72,18.18s-.57,19.62-8.19,26.75a27.5,27.5,0,0,1-23.5,3.66,2.9,2.9,0,0,0-2.74.63,2.87,2.87,0,0,0-.86,2.67,13.88,13.88,0,0,1-.81,8.29,14.06,14.06,0,0,1-8.24,7.67,16.27,16.27,0,0,1-12-.41A2.85,2.85,0,0,0,588.6,513a22.47,22.47,0,0,0,8.81,1.83,21.5,21.5,0,0,0,7.38-1.31,19.64,19.64,0,0,0,11.52-10.78,19.26,19.26,0,0,0,1.56-7.44,33,33,0,0,0,24.58-5.52l.27-.22C652,481,655.81,468.52,652.67,457S640.45,437.53,627.66,434.76Z"/><path class="cls-1" d="M710.19,248.25a8.68,8.68,0,0,0-2.37-8.46c-4.48-4.33-10.28-5.09-15.89-5.82-1.6-.21-3.24-.42-4.91-.72-.7-.13-1.45-.32-2.21-.51,1.36-14.61-.75-20.82-5.11-26.46-4.93-6.38-4.83-10-3.43-16.72.68-3.21,2.14-10.36,3.63-17.69h0a2.83,2.83,0,0,0,2.14-.41,2.81,2.81,0,0,0,1.23-1.81l2.74-13.39a2.81,2.81,0,0,0-.41-2.15,2.86,2.86,0,0,0-1.81-1.22h-.06c.23-1.09.4-1.93.49-2.36a5.06,5.06,0,0,0-.77-3.89c-2.09-3.17-7.64-4.44-8.71-4.65l-.39-.08c-1.09-.24-6.7-1.29-9.88.77a5.09,5.09,0,0,0-2.26,3.26c-.09.43-.26,1.26-.5,2.35h0a2.86,2.86,0,0,0-3.39,2.2l-2.84,13.37a2.79,2.79,0,0,0,.4,2.14,2.84,2.84,0,0,0,1.8,1.24h0c-1.57,7.32-3.09,14.46-3.76,17.67-1.4,6.72-2.75,10.08-9.83,13.95-5.84,3.21-10.09,7.65-14.37,19.6-9.3-2.32-15.26,1.65-17.41,3.5-2.71,2.33-4.14,7.65-5.87,14.91-.4,1.71-.79,3.33-1.17,4.66-.45,1.58-1.1,3.22-1.79,4.95a57.91,57.91,0,0,0-4.14,14.67c-9.06,2.67-22.28-1.76-39.35-13.2h0a119.29,119.29,0,0,1,8.56-13.9c4.91-6.74,10.43-11.72,21.85-21.47.11-.1.17-.23.27-.34a98.5,98.5,0,0,0,20-13.82c14.82-13.07,22-26.85,21.34-41-1-21.18-19.18-35-21.25-36.52-5.1-3.71-16.87-6.27-27-3.92-6,1.38-10.66,4.29-13.57,8.46-26.66-5.88-37.12-15.15-51.41-27.86l-2.46-2.19c-.33-1.78-.66-3.56-1.11-5.3C510,69.85,499.68,53,487.3,42.46a41.24,41.24,0,0,0-5.91-23C473,5.19,466.3-1.29,461.52.21,457,1.59,457.46,8,457.6,10.11c.42,6.42.92,15.09-4.48,20.79-.92.15-1.84.33-2.75.56a40.19,40.19,0,0,0-15.7,8.47,35.47,35.47,0,0,0-2.41-10.81c-2.27-5.05-6.15-8.29-9.88-8.29h-.07c-2.72,0-5,1.75-6.27,4.71l-.52,1.24a28.64,28.64,0,0,1-1.79,3.79,6.9,6.9,0,0,1-.93-.68c-.85-.72-2.24-2.1-3.86-3.7C400,17.33,391.5,9.38,384.45,9.6c-5,.16-8.58,1.67-10.76,4.52-1.4,1.84-2.82,5.13-1.56,10.39a11.74,11.74,0,0,0,2.66,5c-3.09-1.35-6.45-3.22-8.92-4.58-1.69-.94-3.22-1.79-4.44-2.39-8.93-4.38-18.16-3.94-21.94,1.07-1.47,1.94-4.08,7.35,3.44,15.73,6.24,7,14.35,10.49,19.71,12.82,1.36.59,2.94,1.28,4,1.84-2.5,2.13-4.48,2.25-7.56,2.44-1.05.06-2.16.13-3.35.28-3.56.44-8.27,2.22-10.82,5.9a8.9,8.9,0,0,0-1.38,7.31c.54,2.28,2.37,5,5,7.57-22.37,17-42.35,20-55.34,19.49-9.2-.4-14.2-7-19-13.42-3.33-4.41-6.49-8.58-10.85-9.82-1.26-.35-5.53-1-7.63,6.23-3.8,12.94.85,48.86,26.71,56.75a67.8,67.8,0,0,0,19.93,3.34,48.47,48.47,0,0,0,6.18-.42,143.86,143.86,0,0,0-3.27,22.5c-18.22,11.37-29,24.77-32,40l-.12.59c-.21,1-.34,3.6,3,5.61,2.61,1.56,7.09,2.58,12.6,2.58a54.92,54.92,0,0,0,22.5-5.14,107.11,107.11,0,0,0,7.88,16.94,31.76,31.76,0,0,0-4.92,3.95c-7.25-1.8-35.4-7.5-58.05,6a29.22,29.22,0,0,0-7.79,7.05c-5.61,6.34-8.45,14.94-6.77,20.51a7.58,7.58,0,0,0,5.44,5.4,14.26,14.26,0,0,0,3.54.45c.36,0,.71-.07,1.07-.1-2.86,5.21-4,10.83-2.82,14.86a7.58,7.58,0,0,0,5.44,5.4,14.1,14.1,0,0,0,3.53.44c.18,0,.35,0,.53,0q-3.24,6.28-1.49,12.08a7.83,7.83,0,0,0,5.62,5.58,17.52,17.52,0,0,0,4.38.55c5.14,0,10-2.18,14.54-4.65a76.36,76.36,0,0,1,16.91-7,9.1,9.1,0,0,0,4.25,2.84,11.85,11.85,0,0,0,3.58.54,15.18,15.18,0,0,0,8.1-2.49,13.61,13.61,0,0,1,6.31-2.31c1.25-.22,2.8-.49,4.78-1,8-2.1,10.7-7.6,11.51-9.87,1.39-3.85.58-12.3-.54-16.91-1-4.14-2.66-8.75-5.85-16.15a26.54,26.54,0,0,1,3.89-3.49c13.69,15.92,31.94,30.12,54.46,42.41a64.06,64.06,0,0,1-2.39,6.25c-3.95,8.56-12.31,29.7-4.8,41.18a14.07,14.07,0,0,0,3.89,3.95c-4.77,13.66-11.64,20.43-14.74,23.44-1.77-1.06-5.34-5.39-7.78-8.34-1.18-1.43-2.38-2.86-3.59-4.25,1.08-.58,1.79-.93,1.92-1,1-.43,2.52-1.58,2.69-4.57.39-6.84-7-23.62-15-28.1a27.18,27.18,0,0,1-6.61-5.82c-2.79-3.08-6.6-7.3-11.56-3.74-5.2,3.74-43.28,36.1-68.15,60.69l-.74.73H203.67a2.86,2.86,0,0,0,0,5.71h52.54c-27.71,28.16-27.82,34.25-25.37,37.95,2.3,3.49,14.32,14.33,24.52,14.33a11.81,11.81,0,0,0,5.1-1.08c4.53-2.12,9.1-5.8,13.53-9.36,4.22-3.39,8.59-6.9,11.63-7.8a63.44,63.44,0,0,1,8.21-1.18c-3.17,2.86-7.15,6.58-11,10.54a2.85,2.85,0,0,0,2.05,4.84,2.83,2.83,0,0,0,2.05-.87C291,416,295.36,412,298.6,409.13c2.19,5.8,6.13,10.25,9.72,12.09a8.92,8.92,0,0,0,4,1.06,6.29,6.29,0,0,0,3.08-.78,9.49,9.49,0,0,0,5.28-7.75c.13-2.48-.83-6.17-5.72-9.87,3-.27,5.24-.5,6.38-.7,5.21-.92,7.35-8.07,10.58-18.89.8-2.68,1.66-5.58,2.64-8.59.12-.35.27-.68.4-1,9.66,13.2,27.56,35.78,35.75,39.68a5.46,5.46,0,0,0,2.35.52,9.11,9.11,0,0,0,4.17-1.19c6.74-3.55,16.44-15.47,24.73-31.15a2.32,2.32,0,0,0,.22-.3,2.06,2.06,0,0,0,.12-.35c6.46-12.36,12-27,14.57-41.67,2-.14,3.88-.29,5.73-.44,8.09-.63,17.95-1.4,21.24-.7-.42,2-1.16,5.35-2.06,9.37-2.27,10.17-5.66,25.34-7.92,38-3.1.08-5.16-.07-5.4-.09-1-.1-3,.1-4.61,2.62-3.75,5.72-5.72,24-1.06,31.82a27.28,27.28,0,0,1,2.81,8.35c.83,3.86,1.95,9.07,7.25,9.07.28,0,.58,0,.89,0,6.37-.65,55.53-9.63,89.37-18.49,46.4-12.14,50-17.79,49.73-22.54s-7.12-25.27-19-26.29c-5-.44-10.79.47-16.4,1.34-5.36.83-10.9,1.68-14,.94a64.72,64.72,0,0,1-7.7-3.08c4.18-.89,9.49-2.13,14.79-3.64a2.85,2.85,0,1,0-1.57-5.48c-5.64,1.61-11.4,2.91-15.66,3.8,1-6.12-.18-11.95-2.37-15.34a7.42,7.42,0,0,0-6-3.79,9.55,9.55,0,0,0-8.44,4.06c-1.35,2.09-2.37,5.76,0,11.42-2.72-1.26-4.79-2.19-5.88-2.59-3.62-1.31-7.47,1-12.46,5.4l.49-2.06c3.45-14.48,7-29.46,8.57-37.63l.05-.29c.87-4.53,1.77-9.4,1.56-13.73,17.93-2.4,33-8.46,42.35-16.76a72,72,0,0,0,12.44-15l.1.1c10.88,7.3,42.32,17.29,58.4,14.17a15.36,15.36,0,0,0,8.5,9.39l-7.31,35c-.39,1.86-.8,3.49-1.15,4.94-1.15,4.64-2,8-.13,10.95s6.17,4.47,13.31,6l13.07,2.73h.09l.14,0h0l.13,0h.11L642,364.51a47.6,47.6,0,0,0,9.12,1.26,9.4,9.4,0,0,0,5.46-1.4c2.88-2,3.46-5.37,4.27-10.08.25-1.47.53-3.13.92-5l5.92-28.36a2.77,2.77,0,0,0,1.28.34h0a34.5,34.5,0,0,0,12.4-2.78c9.65-3.31,17.74-10.61,19.26-17.39a8.66,8.66,0,0,0-2.36-8.45,17,17,0,0,0-5.59-3.58c6.57-3.78,11.55-9.24,12.71-14.4a8.66,8.66,0,0,0-2.36-8.45,17.13,17.13,0,0,0-5.6-3.59C704.05,258.87,709,253.42,710.19,248.25ZM667.78,147.38c.84-.37,3.38-.33,5.42.1l.42.09a12.39,12.39,0,0,1,5,2.07c-.09.47-.24,1.19-.42,2.08l-10.87-2.26C667.53,148.56,667.68,147.85,667.78,147.38Zm-4.49,7.07,16.61,3.47-1.6,7.79L670.17,164h0l-8.52-1.78Zm-16.43,49.4c8.6-4.72,10.94-9.49,12.67-17.79.67-3.21,2.19-10.34,3.76-17.66l11,2.31c-1.49,7.33-3,14.47-3.62,17.69-1.74,8.29-1.51,13.6,4.49,21.37,3,3.93,5.13,8.24,4,21.42-6.21-1.75-13.24-3.2-15.57,2.9l-.2.55c-1.4,3.65-3.6,9.43-.69,14.53l-18.85-3.94c3.79.19,6.67-.5,8.89-2.11,3.31-2.4,4.25-6.26,4.72-9.71.59-4.23-.89-6.86-2.24-8.32-2.36-2.55-6.13-3.7-11.14-3.39a17.39,17.39,0,0,1-8.41-1.39l-.51-.18C639.21,209.05,642.71,206.12,646.86,203.85Zm18.57,52.28c-2.92.13-5.35,1.27-6.54,4.4l-.21.54c-.19.49-.38,1-.58,1.56l-8.21-1.58-23.8-5.1.74-3.54c.34-1.63.68-3.18,1-4.69l23.78,5.1h0ZM574,130c2.47-4.66,7.33-6.64,11-7.48,8.18-1.88,18.37,0,22.38,3,.74.53,18,13.33,18.92,32.17.57,12.3-6,24.56-19.42,36.43a91.62,91.62,0,0,1-20.07,13.71c-15.48,7.63-31.28,8.64-44.48,2.89-10.27-4.48-17.82-12.6-20.72-22.27-2.54-8.48-2.17-15.68,1.08-21.4,4.77-8.36,15-12.41,22.7-14.33C559.66,149.17,566.89,143.44,574,130ZM509,96.45c2.63,14.1-4.63,28.22-13.05,30.35s-20.7-6.21-24.61-21.65a28.7,28.7,0,0,1-.86-8c.82-.39,2.17-.91,3.07-1.26,3.77-1.45,6-2.32,6.47-4.58.63-3.29-2.42-5.29-4.65-6.75-.44-.29-1.07-.7-1.53-1,2.94-6,7.35-10.4,11.67-11.5,4.15-1.06,8.78.55,13.06,4.5a33.74,33.74,0,0,1,7.91,11.69ZM463.29,9.73a12.78,12.78,0,0,1,.16-3.85c1.86.93,6.59,5.49,13,16.44a36.8,36.8,0,0,1,5.09,15.8c-6.76-4.5-13.95-7.17-21.12-7.59C464.18,23.67,463.66,15.54,463.29,9.73ZM433.66,70a167.62,167.62,0,0,0,1.39-22.71c5.15-5.14,10.87-8.77,16.72-10.25a27.7,27.7,0,0,1,6.82-.85c16.66,0,33.89,14.6,44.37,36.81-.19-.19-.37-.39-.57-.58-5.75-5.3-12.26-7.37-18.33-5.84-6.3,1.6-12.25,7.46-15.92,15.68-1.57,3.49,1.95,5.79,4.06,7.17l.9.6-1.64.64c-3.92,1.51-6.51,2.5-6.67,5.08a35,35,0,0,0,1,10.85c3.87,15.29,15.71,26.31,27.24,26.31a17.32,17.32,0,0,0,4.29-.53c6.08-1.54,11.07-6.6,14.24-13.26a78.72,78.72,0,0,1-6,23.61c-6.43,14.73-16.81,25.18-27.78,28-8.22,2.09-17.52.43-26.52-4.46a86.84,86.84,0,0,0,1.18-45.74c-4.16-16.41-11.82-31-21.76-41.81A21.92,21.92,0,0,0,433.66,70ZM389.19,92.72c1,2,3.14,3,6.27,3h.25c6.67,0,22.3-3.29,31.34-12.54a82.25,82.25,0,0,1,12,17.84c-5.31-4.2-11.13-5.77-16.61-4.39-6.48,1.64-12.73,8-16.31,16.58-1.46,3.49,1.84,5.86,4,7.43a21.13,21.13,0,0,1,2,1.57,30.71,30.71,0,0,1-3,2.26c-3.06,2.12-6.22,4.32-5.88,7.5a35.46,35.46,0,0,0,.84,4.68,38.59,38.59,0,0,0,12.58,20.44c4.67,3.82,9.88,5.85,14.8,5.85a17,17,0,0,0,4.16-.51c5-1.28,9.58-5.15,12.89-10.8-3.19,24.94-17.66,45.26-33.69,49.32-21.35,5.43-51.8-14.91-61.37-52.71-4.19-16.54-2.06-35.5,5.85-52a76.76,76.76,0,0,1,5.36-9.42,28.62,28.62,0,0,0,7.16,1.1c6.13.17,12.39-1.25,16.93-2.26l1.12-.24C388.69,88,388,90.5,389.19,92.72Zm56.07,53c-2.59,5.93-6.68,10.11-10.95,11.19s-9.35-.46-13.95-4.22a32.91,32.91,0,0,1-10.66-17.43,29.84,29.84,0,0,1-.65-3.44,23.87,23.87,0,0,1,3.41-2.66c2.85-2,5.31-3.69,5.68-6.23.47-3.25-2.36-5.28-4.62-6.91a22,22,0,0,1-1.78-1.36c2.9-6.48,7.6-11.34,12.13-12.49,4.15-1.06,8.78.55,13.06,4.5,4.62,4.26,8.18,10.63,10,17.94h0A33.31,33.31,0,0,1,445.26,145.73ZM349.58,65.85c1.2-1.73,3.94-3.13,6.83-3.49,1.07-.13,2.06-.19,3-.25,3.74-.23,7.61-.47,12.06-4.85a4.57,4.57,0,0,0,1.55-4.2c-.53-2.85-3.54-4.16-8.1-6.14-5.21-2.27-12.33-5.38-17.75-11.41-3.2-3.57-4.4-6.82-3.14-8.48,1.78-2.35,8-2.78,14.89.61,1.15.57,2.59,1.37,4.19,2.25,6.27,3.49,14.11,7.82,19.35,6.9.82-.14,3.32-.58,3.82-2.88S384.88,30.26,383,29c-2-1.38-4.77-3.28-5.37-5.8-.4-1.7-.64-4.06.55-5.61,1.35-1.76,4.23-2.21,6.41-2.28h.11c5.11,0,15.29,10.08,20.19,14.94,1.77,1.75,3.17,3.14,4.19,4,1.38,1.17,3.5,2.63,6,2,2.92-.7,4.14-3.62,5.7-7.31l.5-1.2c.2-.47.61-1.25,1.09-1.25h0c1,0,3.17,1.56,4.69,4.94,2.13,4.7,3.49,17.1.93,37.77C426.06,85,402.24,90,395.69,90h-.16a6.28,6.28,0,0,1-1.22-.12c.11-.58.6-1.94,2.56-4.9,1.41-2.14.79-3.67.29-4.4-1.56-2.26-4.24-1.66-9.56-.48-4.25.94-10.06,2.25-15.58,2.12-11.21-.22-22-9.82-23-13.67A3.19,3.19,0,0,1,349.58,65.85Zm-65.53,65.41C266.73,126,262,105.34,261,99.14c-1.74-10.47-.24-18.22,1.12-19.81,2.42.91,4.89,4.19,7.51,7.66,5.1,6.75,11.45,15.16,23.33,15.67,14.14.62,35.95-2.7,60.09-21.45a39.64,39.64,0,0,0,6.31,3.64,81.41,81.41,0,0,0-5.08,9A86.48,86.48,0,0,0,347,116.65C320.56,132.39,308,138.56,284.05,131.26Zm31,282.2c-.08,1.64-1.65,2.68-2.33,3.05a2.32,2.32,0,0,1-1.76-.36c-2.91-1.49-6.25-5.85-7.64-11.11l.05,0a14.41,14.41,0,0,1,7.64,3C313.63,409.82,315.1,411.82,315,413.46Zm-1.57-20.36h0c-4.34,4-7.49,4.72-9.3,4.71,1.92-3.82,5.42-9.31,9.08-9.87,1.44-.22,2.25,0,2.39.31C315.94,388.93,315.49,391.2,313.44,393.1Zm15.73-19.16c-1,3.06-1.87,6-2.68,8.72-1.74,5.82-4.36,14.6-6.11,14.91-.7.12-2.11.28-3.91.45.29-.25.56-.47.85-.74h0c3.6-3.34,5-8.18,3.43-11.51-.64-1.33-2.72-4.33-8.39-3.46-5.29.8-9.34,5.95-11.85,10.23-.37-2.68-.51-5.18-.66-7.76q-.08-1.5-.18-3.06a2.92,2.92,0,0,0-3-2.66,2.85,2.85,0,0,0-2.65,3c.07,1,.12,2,.18,3a70.34,70.34,0,0,0,2,14.68c-5.86.56-10.2,1.1-12.14,1.68-4.11,1.22-8.7,4.91-13.57,8.82-4.16,3.35-8.47,6.81-12.39,8.64-6.89,3.25-20.32-8-22.36-11.07-.25-1.29,1.13-7.57,28.57-35h9.27c-10.29,10.19-20.48,20.94-29.27,31.41A2.85,2.85,0,1,0,248.6,408c9.85-11.73,21.49-23.82,33-35.07H292a2.86,2.86,0,0,0,0-5.71h-4.48c25.75-24.54,49.44-43.81,49.8-44.11a2.85,2.85,0,1,0-3.59-4.42c-.39.31-26.88,21.86-54.43,48.53H270c24.61-23.89,59.19-53.27,64.08-56.8a.83.83,0,0,1,.47-.21c.47,0,1.25.63,3.54,3.16a32.31,32.31,0,0,0,8,7c6.08,3.41,12.6,18.86,12.13,22.79C354.53,344.93,335.25,355.21,329.17,373.94ZM344.59,378c-2.27-3-4.5-6-6.61-8.9a1.86,1.86,0,0,0-.26-.23c4.55-7.74,11.5-13.42,16.69-16.89,1.36,1.53,2.76,3.22,4.12,4.88l1.34,1.61C355.9,367.35,348.32,374.73,344.59,378Zm3.5,4.53c3.7-3.19,11.15-10.32,15.86-19.4.75.79,1.45,1.44,2.12,2-4,9.73-11.27,17.71-14.87,21.28Q349.66,384.5,348.09,382.52Zm25.23,26.69h-.13c-3.51-1.67-10.58-9.05-18.35-18.35,3.78-3.67,11.86-12.36,16.46-23.42a4.45,4.45,0,0,0,2.84-1.25l.46-.45c.57-.55,1.27-1.24,2-2,3.75,4.28,11.81,13,19.28,18.09C386.62,398.52,376.37,409.21,373.32,409.21Zm25.3-32.5c-7.05-4.92-14.94-13.62-18.18-17.35a65.17,65.17,0,0,0,10.24-18.9,25,25,0,0,0,6.87.76c4.54-.09,9.08-.32,13.49-.6A135.36,135.36,0,0,1,398.62,376.71ZM437,333.13c-3.79.12-8.61.48-14.77,1-7.62.59-16.26,1.27-24.75,1.43-5.49.12-9.07-1.36-11.11-4.47-4.86-7.43-.5-23.3,5.21-35.67.88-1.93,1.7-4.14,2.32-5.92q11.17,5.79,23.65,11c3.6,1.5,7.22,2.79,10.84,4-7.75,1.57-15,3.26-20.7,4.85a2.85,2.85,0,0,0,1.55,5.49c8.08-2.27,19.64-4.77,31.1-6.83A183.85,183.85,0,0,0,437,333.13Zm6.85,32.76c4.6-.56,16.94-1.76,28.09-.24l-1,4.45a2.27,2.27,0,0,0,0,.58c-1.7,1.6-3.48,3.26-5.38,5-7.66,6.9-17.91,9.44-25.68,10.34C440.94,379.55,442.38,372.54,443.81,365.89Zm1.27-5.89c.43-1.93.84-3.8,1.23-5.58a182,182,0,0,1,28.3-.16l-1.38,5.82C462.51,358.53,451,359.37,445.08,360Zm56.2-7.25a4.06,4.06,0,0,1,3.42-1.48h.13c.35,0,.88.47,1.34,1.19,1.78,2.74,2.49,8.18,1.07,13.44h-.06a14.39,14.39,0,0,1-5.14-6.39C500.66,356.59,500.39,354.12,501.28,352.75Zm1.6,19c-3.56,2.35-9.33,5.37-12.8,4-1.35-.53-1.94-1.13-1.92-1.46.06-.76,1.58-2.5,4.3-3.12C498.24,369.84,501.32,370.75,502.88,371.74Zm-14.19-7.91c.67.24,2,.82,3.61,1.57-.37.07-.72.12-1.11.21-4.78,1.09-8.44,4.56-8.71,8.25-.12,1.47.21,5.11,5.53,7.19a10.78,10.78,0,0,0,4,.71c4,0,8.18-1.81,11.4-3.64-1,2.51-2.15,4.74-3.31,7-.46.9-.92,1.81-1.38,2.75a2.85,2.85,0,1,0,5.12,2.51c.45-.92.9-1.81,1.35-2.69A70.6,70.6,0,0,0,510.8,374c5.41,2.47,9.35,4.14,11.35,4.62,4.16,1,10,.09,16.17-.86,5.28-.81,10.75-1.66,15-1.29,7.59.65,13.59,17.11,13.83,20.77-.43,1.28-5,6.27-45.49,16.87-33.59,8.79-82.22,17.69-88.5,18.32-.64.08-1,.1-2-4.55a32.13,32.13,0,0,0-3.48-10.06c-3.56-6-1.47-22.63.9-25.8,4.17.28,26,1,40.65-12.17,2.39-2.15,4.62-4.26,6.69-6.21C480.36,369.52,487,363.24,488.69,363.83Zm-7-41-.05.29c-1.11,5.84-3.29,15.3-5.71,25.55a178,178,0,0,0-28.32-.06c1.05-4.67,1.8-8.08,2.1-9.71a4.08,4.08,0,0,0-1-3.53c-1.13-1.26-3-1.91-6.06-2.15a180.26,180.26,0,0,1,3.7-26.33c13.43-2.22,25.82-3.67,31.18-3.2,2,.18,3.46.81,4.31,1.95C484.34,308.92,482.87,316.63,481.69,322.82Zm31.86-54.39c-15.52-2.28-30.1-12.75-43.37-31.09,5.74-3.79,11.09-9.87,14.71-19.51a2.85,2.85,0,1,0-5.34-2c-10.34,27.56-36.38,21.32-37.48,21a2.85,2.85,0,1,0-1.42,5.52,38.63,38.63,0,0,0,8.6.88,39.67,39.67,0,0,0,15.89-3.19c14.31,20,30.31,31.45,47.58,34a48.89,48.89,0,0,0,7.3.54,52.34,52.34,0,0,0,22.4-5.15c-4.13,7.36-8.76,14.11-15,19.68-8.67,7.73-22.81,13.33-39.65,15.53a10.86,10.86,0,0,0-1.36-2.48c-1.86-2.46-4.68-3.87-8.36-4.19-6.09-.52-19.89,1.12-34.47,3.59h0l-2.64.45a138,138,0,0,1-21.22-6.84c-34.76-14.44-61.7-32.46-80.22-53.58,3.7-1.22,7.88-1.31,13.32-.9a2.88,2.88,0,0,0,3.06-2.63,2.84,2.84,0,0,0-2.63-3.05c-11.8-.91-19.73.43-27.92,9.93a3.19,3.19,0,0,0-.3.42l-.34.59a2.81,2.81,0,0,0-.16,2.58c3.48,8,5.22,12.68,6.2,16.75,1.1,4.54,1.47,11.55.72,13.64-.51,1.42-2.27,4.88-7.61,6.29-1.74.46-3.09.69-4.29.9a19.2,19.2,0,0,0-8.43,3.14,8.46,8.46,0,0,1-6.85,1.31,3.25,3.25,0,0,1-2.13-1.8c-.71-1.8-1.35-4.41-.33-6.65.83-1.81,2.7-3.24,5.56-4.24,2.33-.82,4.14-1.33,5.51-1.73,2.7-.78,4.49-1.29,5.41-3.07s.25-3.53-.17-4.74a2.85,2.85,0,0,0-5.38,1.89v0c-.43.14-1,.28-1.44.42-1.44.42-3.35,1-5.81,1.83-4.39,1.54-7.37,4-8.86,7.26a12.72,12.72,0,0,0-.69,8.15,80.57,80.57,0,0,0-17.3,7.26c-5.53,3-10.16,4.77-14.77,3.59a2.15,2.15,0,0,1-1.59-1.72c-1-3.22-.11-7.24,4.3-12.46l1.59-.63c1.2-.5,2.44-1,3.74-1.45a2.85,2.85,0,0,0-1.89-5.38c-1.38.48-2.71,1-4,1.54-4,1.61-7.08,2.87-10.34,2-.51-.13-1.07-.42-1.41-1.54-1-3.17.93-9.87,5.66-15.16a3.79,3.79,0,0,0,.2-.34l.81-.32c1.21-.49,2.45-1,3.75-1.45a2.85,2.85,0,0,0-1.89-5.38c-1.38.49-2.71,1-4,1.55-4,1.6-7.08,2.87-10.34,2-.51-.13-1.07-.41-1.41-1.53-1-3.18.93-9.87,5.65-15.17a2.11,2.11,0,0,0,.19-.23,23.61,23.61,0,0,1,6.18-5.61c23.5-14,54.94-5.07,55.25-5a2.87,2.87,0,0,0,3-.87,26.67,26.67,0,0,1,7.14-5.59h0c7.73-4.36,18.16-6.62,25.74-6.06a2.88,2.88,0,0,0,3.05-2.63,2.85,2.85,0,0,0-2.62-3.06c-7.71-.56-18,1.39-26.54,5.52a102.77,102.77,0,0,1-7.78-16.75,59.18,59.18,0,0,0,8.41-5.9c10.43-8.84,16.92-26.1,18.89-34a2.85,2.85,0,0,0-5.53-1.39c-1.46,5.86-7.37,22.84-17.05,31-12.27,10.39-26.59,13.06-35.89,12.13-3.79-.38-5.67-1.28-6.33-1.74v0c3.55-17.82,19.32-33.12,46.87-45.48a2.85,2.85,0,0,0-2.34-5.2c-4.34,2-8.37,4-12.17,6.08a145.29,145.29,0,0,1,3.45-20.18c9.6-2.38,19.26-7.46,31.51-14.66a78.24,78.24,0,0,0,1.9,25.86c8.41,33.17,34.79,57.9,59.57,57.9a35.79,35.79,0,0,0,8.73-1.07c12.66-3.21,24.47-14.88,31.6-31.21.52-1.18.94-2.41,1.4-3.62a45.86,45.86,0,0,0,21.09,5.56,35.55,35.55,0,0,0,8.7-1.06c12.66-3.21,24.48-14.88,31.61-31.21a86.45,86.45,0,0,0,6.71-40.89c13,11.49,24.47,20.68,49.7,26.56-5.71,9.51-11.76,13.73-23.13,16.56-12.63,3.15-21.71,9-26.27,17-4.06,7.13-4.59,15.83-1.59,25.87,3.38,11.28,12.09,20.7,23.9,25.86a50.88,50.88,0,0,0,20.38,4.15,60.25,60.25,0,0,0,15-2A82.7,82.7,0,0,0,564,230.67c-6,8.18-10.39,17-14.67,25.62L547.44,260a2.52,2.52,0,0,0-.49.25A46.86,46.86,0,0,1,513.55,268.43Zm93.51,20.69a2.85,2.85,0,0,0-3.81-2.59c-11.84,4.24-45.15-5.23-56.34-12.73-.11-.07-.23-.08-.34-.14,2.81-4.85,5.33-9.87,7.81-14.83q1.46-2.91,3-5.85c14.7,9.79,26.74,14.65,36.48,14.65a24.7,24.7,0,0,0,8.41-1.4,5.38,5.38,0,0,0,2.6-2.81,51.3,51.3,0,0,1,4-14.84,56.75,56.75,0,0,0,2-5.49c.4-1.41.81-3.11,1.24-4.91.94-4,2.52-10.6,4-11.9s5.69-4.05,12.54-2.26c2.17.57,3.78,1.15,5.2,1.65a22.71,22.71,0,0,0,10.67,1.72c3.15-.19,5.5.37,6.61,1.57a4.35,4.35,0,0,1,.79,3.67c-.45,3.25-1.16,5-2.43,5.88-1.61,1.17-4.61,1.37-8.91.59-8.51-1.53-15.21-4.16-17.32,3.21h0c-.09.41-.19.84-.28,1.26,0,.06,0,.1,0,.17v0c-.53,2.36-1.07,4.82-1.62,7.45l-9.41,45.08A10.51,10.51,0,0,1,607.06,289.12Zm49.12,59c-.4,1.93-.7,3.66-1,5.19-.55,3.2-1,5.73-1.86,6.33-1.58,1.07-7.85-.24-10.21-.73-6.2-1.3-10-2.1-12.39-2.43a3.18,3.18,0,0,0-.9-.35l-.05.24h0l-.18-.06,0-.22a2.67,2.67,0,0,0-.93,0c-2.33-.65-6.11-1.44-12.18-2.7-2.36-.5-8.64-1.81-9.65-3.42-.57-.9,0-3.39.83-6.55.37-1.5.79-3.2,1.2-5.13L610,333l23.4,5h0l23.85,4.84Zm2.26-10.82-47.28-9.87,1-4.76,23.4,5,23.87,4.85ZM660.6,327l-23.46-4.76-23.82-5.11,11.61-55.58,23.42,5,8.33,1.6c-.59,4.83.86,10.25,9.38,13.89l3.6,1.52,1.13.46c0,.1,0,.22-.07.32-6.45-1.87-14.14-3.84-16.59,2.61l-.15.4c-2.14,5.59-5.36,14,7,21a15.5,15.5,0,0,0,3.2,1.28Zm33.75-30.22a3,3,0,0,1,.76,3.11c-1,4.24-7.07,10.36-15.67,13.27l-.29.12a28.37,28.37,0,0,1-10.24,2.32l-.11,0,1.05-5.05a26.8,26.8,0,0,0,2.77,0,2.85,2.85,0,0,0,2.69-3,2.93,2.93,0,0,0-3-2.69c-1.5.08-5.9,0-8.5-1.5-8.11-4.54-6.68-8.29-4.51-14l.16-.4c.68-1.79,6.53-.08,10.4,1,2.22.65,4.52,1.31,6.63,1.7,1.77.31,3.5.54,5.19.76C686.8,293.16,691.22,293.73,694.35,296.76Zm4.76-26.43a3,3,0,0,1,.76,3.1c-1,4.24-7.07,10.37-15.67,13.28a3.25,3.25,0,0,0-.51.3l-1.27-.17c-1.6-.21-3.25-.43-4.92-.73-.4-.07-.85-.19-1.27-.29a1.86,1.86,0,0,1,.34-.83,3.49,3.49,0,0,0,.58-3c-.52-1.65-1.62-2.12-5.29-3.65-1-.39-2.12-.88-3.57-1.5-7.81-3.33-6.78-7.18-4.29-13.69l.22-.55c.67-1.79,6.53-.09,10.4,1a66.57,66.57,0,0,0,6.63,1.69c1.76.32,3.49.55,5.18.77C691.55,266.72,696,267.3,699.11,270.33ZM689,260.28a2.32,2.32,0,0,0-.51.29l-1.28-.17c-1.6-.21-3.24-.42-4.91-.72-.4-.07-.85-.2-1.28-.29a2,2,0,0,1,.35-.84,3.43,3.43,0,0,0,.57-3c-.51-1.66-1.62-2.12-5.29-3.65l-3.56-1.5c-7.81-3.33-6.78-7.18-4.29-13.69l.21-.56c.68-1.78,6.53-.08,10.41,1,2.22.64,4.51,1.31,6.63,1.69,1.76.32,3.5.55,5.19.77,5.11.66,9.53,1.24,12.67,4.26a3,3,0,0,1,.76,3.11C703.68,251.24,697.56,257.37,689,260.28Z"/><path class="cls-1" d="M531.5,473l55.57-12.27c5.06-.71,10.84-3.3,10.66-8.33a35.51,35.51,0,0,0-1.84-8.61c-.28-.94-.56-1.86-.79-2.72a7.91,7.91,0,0,0-3.71-5c-3.71-2.15-8.45-.94-8.83-.83l-65.42,14.42-206.4,22.14-67-.24c-2.26.11-6.48,2.21-6.22,9.36l.41,11c.12,3.32,3.38,5.13,6.85,5.47l57,.2a17.09,17.09,0,0,0,12.71,28.47,16.56,16.56,0,0,0,1.86-.1,17.08,17.08,0,0,0,9.61-29.7l181.58-19.48a17.08,17.08,0,0,0,13.85,27.1,16,16,0,0,0,1.83-.1A17.09,17.09,0,0,0,531.5,473Zm-288.27,7.71c-.09-2.23.48-3.26.92-3.45l66.72.24a2.73,2.73,0,0,1,.32,0l206.72-22.17a1.67,1.67,0,0,0,.31,0l65.69-14.49c.76-.2,3.23-.58,4.64.24a2.22,2.22,0,0,1,1,1.5c.2.77.45,1.59.7,2.41l-71.78,16.06L315.82,482.68l-2.18.22-12.86.16-57.47-.18Zm80.22,35.44a11.4,11.4,0,1,1-10.1-18.49,10.43,10.43,0,0,1,1.24-.07,11.4,11.4,0,0,1,8.86,18.56ZM312.9,491.93,245,491.68a5.11,5.11,0,0,1-1.36-.39l-.1-2.71,68.57.21h.31l206.87-22.19a1.64,1.64,0,0,0,.32,0l72.16-16.14a13.17,13.17,0,0,1,.28,2.17c0,.63-2.7,2.05-5.85,2.49l-.23,0-66.49,14.68Zm209.76,6.18a11.41,11.41,0,0,1-2.44-22.68c.41,0,.82-.06,1.22-.06a11.4,11.4,0,0,1,1.22,22.74Z"/><path class="cls-1" d="M591.72,158.26c5.12,0,9.19-4.57,11.28-6.92a11.21,11.21,0,1,0-16.74-14.9c-3,3.38-10,11.28-1.67,18.73A10.69,10.69,0,0,0,591.72,158.26Zm-1.19-18a5.5,5.5,0,0,1,8.22,7.31c-4.33,4.86-6.85,6.5-10.37,3.37S586.2,145.09,590.53,140.23Z"/><path class="cls-1" d="M551.2,163.19c-3.61.67-6.85,2.8-9.23,4.36a12.41,12.41,0,0,0,6.83,22.79,12.27,12.27,0,0,0,6.79-2c4.23-2.77,14.12-9.26,7.31-19.64C559.21,163,554.52,162.58,551.2,163.19Zm1.27,20.36a6.72,6.72,0,1,1-7.37-11.24c2-1.29,4.66-3.05,7.14-3.51a6,6,0,0,1,1.15-.12c1.43,0,3.09.6,4.74,3.12C561.27,176.57,558.8,179.39,552.47,183.55Z"/><path class="cls-1" d="M434.37,423.13a2.86,2.86,0,0,0,2.82,2.4,2.42,2.42,0,0,0,.45,0c.7-.11,70.68-11.35,120.35-29.4a2.85,2.85,0,0,0-2-5.36c-49.15,17.87-118.6,29-119.3,29.13A2.87,2.87,0,0,0,434.37,423.13Z"/></g></g></svg>