<svg xmlns="http://www.w3.org/2000/svg" viewBox="0 0 57.82 87.94"><defs><style>.cls-1{fill:#fff;}</style></defs><g id="Layer_2" data-name="Layer 2"><g id="Layer_1-2" data-name="Layer 1"><path class="cls-1" d="M57.21,14.28a29,29,0,0,0-2.35-3.46A15.81,15.81,0,0,1,52.6,7.27l-.05-.13C51.59,4.65,49.79,0,28.91,0S6.23,4.65,5.27,7.14l0,.13A15.81,15.81,0,0,1,3,10.82,29,29,0,0,0,.61,14.28a4.76,4.76,0,0,0-.17,4.33,7.82,7.82,0,0,0,4.32,3.73c.1,1.2,2.3,29.24,3.76,47.17S13.28,88,26.9,87.94h5c12.83,0,16-1,17.41-18.43,1.46-17.93,3.66-46,3.76-47.17a7.82,7.82,0,0,0,4.32-3.73A4.76,4.76,0,0,0,57.21,14.28ZM29,9.08c.1,0,10.14,1.1,18.14-1.53a1,1,0,0,1,.62,1.9,44.85,44.85,0,0,1-13.52,1.87,52.93,52.93,0,0,1-5.46-.26,1,1,0,0,1,.22-2ZM47.3,69.35C45.94,86,43.66,86,30.92,85.94h-4c-12.72,0-15,0-16.38-16.59C9.18,52.93,7.22,28,6.83,23l.61.17a115.1,115.1,0,0,0,21.47,2.11A115.1,115.1,0,0,0,50.38,23.2L51,23C50.6,28,48.64,52.93,47.3,69.35Z"/></g></g></svg>