<svg xmlns="http://www.w3.org/2000/svg" viewBox="0 0 133.51 142.97"><defs><style>.cls-1{fill:#fff;}</style></defs><g id="Layer_2" data-name="Layer 2"><g id="Layer_1-2" data-name="Layer 1"><path class="cls-1" d="M48.14,59.06a6.16,6.16,0,0,1,7.4,1.55C60,65,64.48,69.29,68.85,73.73a19,19,0,0,1,3,4.24,7.2,7.2,0,0,1-.66,8.4c-1.11,1.42-2.28,2.79-3.48,4.26,1.16,1.2,2.25,2.31,3.55,3.64,1-1.06,1.71-1.84,2.41-2.64,6.41-7.32,6.51-12.42,0-19.67C68.92,66.73,63.87,61.78,59,56.71c-2.72-2.8-2.87-3-1-6.45,2.18-4,2.15-7.91-.39-11.75a22.4,22.4,0,0,0-2-3.14c-4-4.22-7.91-8.49-12.09-12.5C36.65,16.38,29.72,10.06,22.8,3.71c-2.22-2-4.79-2-7.41-.78a30.54,30.54,0,0,0-11.91,9.6A19.89,19.89,0,0,0,.16,19.86C-.75,24,2.46,26.6,5,29.11c9,8.94,18.24,17.7,27.35,26.57C36.94,60.14,42.26,61.4,48.14,59.06ZM4.22,24.83c-2.32-2.48-2.6-4.5-1-7.49a26.78,26.78,0,0,1,13.13-12c2.49-1.12,4.31-.1,6.05,1.52,8,7.56,16.2,15,24.09,22.73a97.54,97.54,0,0,1,9,10.58c.94,1.22,1.11,3,1.42,3.94-.67,6.29-3.69,10.32-8.45,12.61a11.71,11.71,0,0,1-13.67-2.14c-7.55-7-14.9-14.21-22.3-21.37C9.63,30.45,6.88,27.68,4.22,24.83Z"/><path class="cls-1" d="M59.85,99.88c-4.55,4.13-9.2,8.15-13.6,12.43-3,3-6.23,4-10.37,2.75a98.13,98.13,0,0,0-11.39-2.55c-2.6-.44-3.77.51-3.44,3.14a23.25,23.25,0,0,0,2.37,8.47,40.06,40.06,0,0,0,12.65,13.22c3.22,2.19,6.59,4.21,10.83,3.71,3.15-.38,4.34-1.72,3.65-4.8a75.94,75.94,0,0,0-2.73-10.6c-1.52-4-.64-6.75,2.38-9.62,4.44-4.22,8.48-8.86,12.85-13.49L59.27,99C59.46,99.3,59.65,99.59,59.85,99.88Zm-17,36.51a1,1,0,0,1-.88.51,1,1,0,0,1-.48-.12c-6.73-3.71-12-10.8-12.22-11.1a1,1,0,0,1,1.61-1.19c.05.07,5.24,7,11.58,10.54A1,1,0,0,1,42.9,136.39Z"/><path class="cls-1" d="M20.27,9.9a1,1,0,0,0-1.36.39C15.42,16.63,8.45,21.82,8.38,21.87a1,1,0,0,0-.21,1.4,1,1,0,0,0,.8.41,1,1,0,0,0,.6-.2c.3-.22,7.38-5.49,11.1-12.22A1,1,0,0,0,20.27,9.9Z"/><path class="cls-1" d="M124.38,18.83C118.05,15.34,112.86,8.36,112.8,8.3a1,1,0,0,0-1.39-.22,1,1,0,0,0-.22,1.4c.23.3,5.5,7.39,12.23,11.1a.94.94,0,0,0,.48.13,1,1,0,0,0,.48-1.88Z"/><path class="cls-1" d="M106.44,113.88c-4,.84-8.09,1.79-12,3a5.63,5.63,0,0,1-6.28-1.64c-2.58-2.69-5.32-5.24-8-7.9-6.25-6.3-12.57-12.55-18.69-19-3.5-3.68-3.26-7.86.19-11.53.76-.82,1.54-1.64,2.35-2.49L60.44,70.5c-1.72,1.88-3.3,3.47-4.72,5.2C53,79,51.92,82.72,54,86.56a38.41,38.41,0,0,0,6.24,8.88c6.33,6.46,13,12.55,19.52,18.86a46.92,46.92,0,0,1,4.75,5.41,7.52,7.52,0,0,1,1.05,7.06c-1.15,3.9-2,7.88-2.87,11.85-.75,3.4.12,4.4,3.65,4.35a12.17,12.17,0,0,0,2.69-.35c9.32-2.26,15.32-8.66,19.93-16.51a20.45,20.45,0,0,0,2.5-8.15C111.73,114.79,109.61,113.23,106.44,113.88Zm1,8.41c-3.71,6.73-10.8,12-11.1,12.22a1,1,0,0,1-.59.2,1,1,0,0,1-.6-1.81c.07-.05,7-5.24,10.54-11.58a1,1,0,0,1,1.36-.39A1,1,0,0,1,107.41,122.29Z"/><path class="cls-1" d="M131.33,12A35.24,35.24,0,0,0,118.57,1.07c-3.67-1.86-6.74-1.29-9.67,1.66-7.42,7.48-15.1,14.72-22.41,22.32a97.34,97.34,0,0,0-9.61,12c-3.33,4.78-2.64,9.78.57,14.4,1.06,1.53.91,2.32-.45,3.48-2.77,2.35-5.37,4.89-8.26,7.55l4.19,4.15c2.64-2.87,5-5.42,7.37-8,1.49-1.64,3.14-1.85,5.16-1,5.61,2.48,10.76,1.41,15.24-2.54,3.3-2.91,6.42-6,9.46-9.22,7-7.32,14-14.6,20.8-22.15C134.31,20,134.29,16,131.33,12Zm-2,10.32Q114.76,37.6,99.93,52.73c-4.52,4.6-10.28,4.86-15.63,1.3-3.46-2.3-6.08-4.94-6.64-9.37A9.67,9.67,0,0,1,79.78,37C84,31.9,88.4,26.89,93,22.12c5.41-5.63,11.09-11,16.68-16.45,3.78-3.69,4.92-3.83,9.62-1.36a25.38,25.38,0,0,1,10.29,9.52,38.38,38.38,0,0,1,1.88,4.33C130.77,19.56,130.38,21.21,129.37,22.27Z"/></g></g></svg>