<svg xmlns="http://www.w3.org/2000/svg" viewBox="0 0 146.69 136.25"><defs><style>.cls-1{fill:#fff;}.cls-2{fill:none;stroke:#fff;stroke-linecap:round;stroke-miterlimit:10;stroke-width:2px;}</style></defs><g id="Layer_2" data-name="Layer 2"><g id="Layer_1-2" data-name="Layer 1"><path class="cls-1" d="M86,13.25a3.79,3.79,0,0,1-3-4.47,3.69,3.69,0,0,1,4.66-2.95,3.8,3.8,0,0,1,2.89,4.53A3.91,3.91,0,0,1,86,13.25Z"/><path class="cls-1" d="M79.48,79,77.41,82.1c-.11,0-.11.11,0,.15v0l1.28.55c.11,0,.16,0,.18-.1l.76-3.63a.07.07,0,0,0,0-.08A.08.08,0,0,0,79.48,79Z"/><path class="cls-1" d="M107,84.69a1.5,1.5,0,0,0-1.07-.26,1.45,1.45,0,0,0-1,.43,1.31,1.31,0,0,0-.36.9,17.81,17.81,0,0,0,.33,4.25,1.36,1.36,0,0,0,.5.84,1.75,1.75,0,0,0,2.07-.16,1.47,1.47,0,0,0,.36-.92,17.77,17.77,0,0,0-.33-4.24A1.36,1.36,0,0,0,107,84.69Z"/><path class="cls-1" d="M88.17,82.32,87,81.91c-.09,0-.15,0-.19.1l-2,5.7a.12.12,0,0,0,.06.18l0,0,1.14.4a1.18,1.18,0,0,0,.92,0,1.54,1.54,0,0,0,.67-.69,17.19,17.19,0,0,0,1.29-3.69,1.51,1.51,0,0,0-.08-1A1.13,1.13,0,0,0,88.17,82.32Z"/><path class="cls-1" d="M140.43,48.19l-58.86-11q-29.68-5.52-59.36-11c-4.76-.88-7.23.85-8.13,5.65Q7.2,68.74.35,105.66c-.2,1-.58,2.34-.17,3.17.86,1.73,1.88,4.1,3.39,4.64,3.53,1.26,7.39,1.61,11.12,2.31,13.32,2.51,26.63,5,40,7.48,10.41,1.92,20.84,3.7,31.25,5.6,12.79,2.34,25.55,4.76,38.33,7.13,5.26,1,7.59-.67,8.58-6q6.81-36.54,13.6-73.09C147.41,51.47,145.88,49.2,140.43,48.19ZM34.1,72.31a.35.35,0,0,1-.17.15.34.34,0,0,1-.26,0l-1.86-.84c-.1,0-.16,0-.21.08l-3.21,7.36a.4.4,0,0,1-.18.16.27.27,0,0,1-.23,0l-1.39-.6a.46.46,0,0,1-.17-.17.3.3,0,0,1,0-.23l3.23-7.36a.15.15,0,0,0-.06-.2h0l-1.87-.79a.4.4,0,0,1-.17-.17.33.33,0,0,1,0-.22l.62-1.4a.29.29,0,0,1,.16-.15.42.42,0,0,1,.22,0l6,2.62a.31.31,0,0,1,.16.16.3.3,0,0,1,0,.23Zm7.3,10.31a.29.29,0,0,1-.22,0l-1.46-.27a.29.29,0,0,1-.19-.13.32.32,0,0,1-.06-.23l.69-3.72a.14.14,0,0,0-.12-.18l-2.26-.42c-.1,0-.16,0-.18.12l-.69,3.72a.29.29,0,0,1-.16.2.43.43,0,0,1-.27,0l-1.39-.26a.28.28,0,0,1-.19-.12.32.32,0,0,1-.06-.23l1.74-9.84a.25.25,0,0,1,.12-.18.32.32,0,0,1,.23-.06l1.49.28a.25.25,0,0,1,.19.12.29.29,0,0,1,.06.22L38,75.46a.16.16,0,0,0,.13.18l2.26.42a.14.14,0,0,0,.17-.09s0,0,0,0l.69-3.73a.32.32,0,0,1,.15-.19A.3.3,0,0,1,41.6,72l1.46.27a.3.3,0,0,1,.2.13.27.27,0,0,1,.05.23l-1.78,9.84A.3.3,0,0,1,41.4,82.62Zm10.62.1a.3.3,0,0,1-.21.1l-5.6.29A.29.29,0,0,1,46,83a.33.33,0,0,1-.11-.21l-.47-10a.3.3,0,0,1,.08-.21.26.26,0,0,1,.21-.11l5.5-.26a.28.28,0,0,1,.21.07.3.3,0,0,1,.1.21L51.6,74a.37.37,0,0,1-.09.21.31.31,0,0,1-.2.11l-3.53.17a.13.13,0,0,0-.11.16h0l.08,1.81a.15.15,0,0,0,.13.15h0l3.41-.17a.25.25,0,0,1,.21.08.28.28,0,0,1,.1.21l.08,1.52a.32.32,0,0,1-.08.21.35.35,0,0,1-.22.1l-3.4.17a.13.13,0,0,0-.14.13s0,0,0,0L48,80.72a.12.12,0,0,0,.12.14s0,0,0,0l3.59-.17a.3.3,0,0,1,.21.09.35.35,0,0,1,.1.2l.07,1.52A.29.29,0,0,1,52,82.72Zm19,1.32a.34.34,0,0,1-.13.18.3.3,0,0,1-.24,0L69.23,84a.3.3,0,0,1-.2-.13.32.32,0,0,1,0-.23l1.21-5.88a.14.14,0,0,0,0-.07.11.11,0,0,0-.09,0L68.9,79.79a.3.3,0,0,1-.36.19l-.88-.16a.35.35,0,0,1-.26-.32l-.26-2.37c0-.06,0-.09-.07-.07a.07.07,0,0,0,0,.06L65.82,83a.26.26,0,0,1-.13.19.28.28,0,0,1-.23,0L64,83a.3.3,0,0,1-.18-.13.32.32,0,0,1-.06-.23l2-9.87a.3.3,0,0,1,.13-.18.34.34,0,0,1,.26,0l2.08.43a.31.31,0,0,1,.26.32l.24,3c0,.09,0,.14.07.15s.11,0,.16-.09l1.42-2.75a.29.29,0,0,1,.37-.18l2.07.42A.26.26,0,0,1,73,74a.27.27,0,0,1,0,.23Zm9,3.78a.41.41,0,0,1-.27,0l-1.46-.63a.28.28,0,0,1-.17-.33l.18-1.62c0-.15,0-.25-.11-.29l-2.1-.9a.21.21,0,0,0-.29.11l-1,1.27a.26.26,0,0,1-.34.16l-.07,0L73,84.87a.27.27,0,0,1-.19-.33l0-.07,6.48-8.19a.26.26,0,0,1,.35-.1l1.87.8a.27.27,0,0,1,.17.33L80.23,87.64A.24.24,0,0,1,80.1,87.82Zm9.48.47a4.09,4.09,0,0,1-1.85,1.87,3,3,0,0,1-2.43.15l-3-1.06a.3.3,0,0,1-.17-.16.26.26,0,0,1,0-.23l3.35-9.42a.27.27,0,0,1,.16-.17.26.26,0,0,1,.23,0l3,1.06A3.06,3.06,0,0,1,90.69,82,4,4,0,0,1,91,84.61,16.63,16.63,0,0,1,89.58,88.29Zm19.49,3.76a3.66,3.66,0,0,1-4.94.4,3.9,3.9,0,0,1-1.33-2.29,17.27,17.27,0,0,1-.34-4.24,3.93,3.93,0,0,1,1-2.46,3.68,3.68,0,0,1,4.94-.39,3.88,3.88,0,0,1,1.32,2.29,17.15,17.15,0,0,1,.34,4.23A3.88,3.88,0,0,1,109.07,92.05Zm10.1.9a.24.24,0,0,1-.23.12l-1.79-.14a.3.3,0,0,1-.3-.25l-1-3.65s-.07-.07-.1-.07a.08.08,0,0,0-.07.05L114,92.47a.33.33,0,0,1-.34.21l-1.77-.14a.27.27,0,0,1-.22-.15.33.33,0,0,1,0-.29l2.61-4.87a.44.44,0,0,0,.06-.32l-1.64-4.52a.3.3,0,0,1,0-.27A.27.27,0,0,1,113,82l1.62.14a.31.31,0,0,1,.27.25l1,3.2c0,.05,0,.07.07.07a.08.08,0,0,0,.08,0l1.49-3a.34.34,0,0,1,.31-.21l1.71.13a.22.22,0,0,1,.21.15.39.39,0,0,1,0,.3l-2.29,4.24a.37.37,0,0,0-.06.32l1.84,5.18A.33.33,0,0,1,119.17,93Z"/><path class="cls-2" d="M114.21,39.9S99.68,15.75,95.6,8.39s-7.25-7.26-7.25-7.26-3-1.26-9.5,4.14-29.06,23-29.06,23"/></g></g></svg>