<svg xmlns="http://www.w3.org/2000/svg" viewBox="0 0 134.69 126.78"><defs><style>.cls-1{fill:#fff;}</style></defs><g id="Layer_2" data-name="Layer 2"><g id="Layer_1-2" data-name="Layer 1"><path class="cls-1" d="M102.1,34.49c-2.19.77-3.4,0-4.62-1.38C89.63,24,81.69,14.93,73.78,5.86,70,1.54,64.86,1.43,61.08,5.72c-7.79,8.86-15.49,17.79-23.22,26.7-1.29,1.48-2.47,3.17-5.16,2l8.86-10.18c5.83-6.7,11.63-13.43,17.51-20.09,4.46-5,11.32-5.68,15.59-1C83.9,13.4,92.84,23.89,102.1,34.49Z"/><path class="cls-1" d="M67.28,12.83A3.8,3.8,0,0,1,63.52,9a3.7,3.7,0,0,1,4-3.76,3.8,3.8,0,0,1,3.67,3.92A3.92,3.92,0,0,1,67.28,12.83Z"/><path class="cls-1" d="M72.94,78.7l-1.48,3.39c-.1,0-.08.12,0,.15v0l1.36.31c.11,0,.16,0,.16-.13l.08-3.71a.07.07,0,0,0-.06-.07A.09.09,0,0,0,72.94,78.7Z"/><path class="cls-1" d="M101.07,79.21a1.5,1.5,0,0,0-1.1-.06,1.54,1.54,0,0,0-.91.6,1.36,1.36,0,0,0-.19,1A17.73,17.73,0,0,0,100,84.82a1.33,1.33,0,0,0,.64.74,1.74,1.74,0,0,0,2-.54,1.42,1.42,0,0,0,.2-1A17.73,17.73,0,0,0,101.71,80,1.3,1.3,0,0,0,101.07,79.21Z"/><path class="cls-1" d="M82.08,80.33l-1.22-.18c-.1,0-.15,0-.17.12l-1,6a.13.13,0,0,0,.1.16h0l1.2.19a1.17,1.17,0,0,0,.89-.21,1.5,1.5,0,0,0,.53-.8,16.87,16.87,0,0,0,.6-3.86,1.46,1.46,0,0,0-.26-.93A1.12,1.12,0,0,0,82.08,80.33Z"/><path class="cls-1" d="M127.22,37.21H67.34q-30.2,0-60.38,0c-4.84,0-6.95,2.15-6.95,7q0,37.55,0,75.09c0,1.07-.14,2.41.41,3.15C1.59,124,3,126.18,4.61,126.44c3.7.59,7.56.23,11.36.24,13.55,0,27.1.07,40.64,0,10.59,0,21.17-.18,31.75-.22,13,0,26,0,39,0,5.34,0,7.33-2,7.33-7.45q0-37.17,0-74.34C134.68,39.16,132.76,37.22,127.22,37.21ZM27.09,80.38a.28.28,0,0,1-.14.18.33.33,0,0,1-.25.08l-2-.49c-.1,0-.16,0-.19.12l-1.81,7.82a.38.38,0,0,1-.15.18.25.25,0,0,1-.22,0L20.86,88a.37.37,0,0,1-.19-.14.34.34,0,0,1,0-.22l1.83-7.83a.13.13,0,0,0-.09-.18h0l-2-.44a.31.31,0,0,1-.19-.13.31.31,0,0,1,0-.23l.35-1.48a.24.24,0,0,1,.13-.18.33.33,0,0,1,.21-.07l6.34,1.48a.39.39,0,0,1,.2.13.27.27,0,0,1,0,.23Zm9.07,8.8a.29.29,0,0,1-.21.09H34.46a.27.27,0,0,1-.2-.09.33.33,0,0,1-.11-.21V85.18c0-.1,0-.14-.15-.14H31.7c-.1,0-.15,0-.15.14V89a.3.3,0,0,1-.12.22.43.43,0,0,1-.26.09H29.75a.25.25,0,0,1-.2-.09.3.3,0,0,1-.1-.21l-.1-10a.29.29,0,0,1,.09-.21.29.29,0,0,1,.22-.09h1.51a.24.24,0,0,1,.21.08.32.32,0,0,1,.1.21v3.79q0,.14.15.15h2.31a.13.13,0,0,0,.15-.11V79a.3.3,0,0,1,.11-.23.31.31,0,0,1,.2-.09h1.49a.31.31,0,0,1,.22.09.27.27,0,0,1,.09.21l0,10A.27.27,0,0,1,36.16,89.18Zm10.45-1.84a.31.31,0,0,1-.18.14L41,88.78a.29.29,0,0,1-.22,0,.3.3,0,0,1-.14-.19l-2.3-9.77a.29.29,0,0,1,0-.22.32.32,0,0,1,.19-.15l5.35-1.26a.28.28,0,0,1,.22,0,.29.29,0,0,1,.15.19l.35,1.48a.34.34,0,0,1,0,.22.28.28,0,0,1-.18.14L40.94,80a.13.13,0,0,0-.08.18h0L41.28,82a.14.14,0,0,0,.15.13h0l3.32-.78a.24.24,0,0,1,.22,0,.3.3,0,0,1,.14.19L45.49,83a.28.28,0,0,1,0,.22.35.35,0,0,1-.2.14L42,84.17a.14.14,0,0,0-.12.16v0l.43,1.77a.13.13,0,0,0,.14.12h0l3.5-.82a.29.29,0,0,1,.22,0,.28.28,0,0,1,.14.18l.35,1.48A.27.27,0,0,1,46.61,87.34Zm19-2.19a.32.32,0,0,1-.1.21.31.31,0,0,1-.22.09H63.77a.29.29,0,0,1-.22-.09.31.31,0,0,1-.09-.22l.11-6a.09.09,0,0,0,0-.07.11.11,0,0,0-.09.05l-.77,2.26a.33.33,0,0,1-.32.25h-.9a.34.34,0,0,1-.31-.27l-.69-2.29a.05.05,0,0,0-.08,0,.16.16,0,0,0,0,.07l-.11,6a.24.24,0,0,1-.09.21.31.31,0,0,1-.22.09H58.44a.29.29,0,0,1-.21-.09.36.36,0,0,1-.09-.22L58.29,75a.33.33,0,0,1,.11-.21.3.3,0,0,1,.24-.09l2.12,0a.31.31,0,0,1,.32.26l.79,3c0,.09,0,.13.1.13s.11,0,.14-.12L63,75a.3.3,0,0,1,.33-.25l2.12,0a.29.29,0,0,1,.2.09.31.31,0,0,1,.09.22Zm9.58,2.06a.32.32,0,0,1-.27,0l-1.54-.35a.26.26,0,0,1-.23-.28L73,85c0-.16-.06-.25-.16-.27l-2.23-.5c-.11,0-.2,0-.26.17l-.74,1.43a.26.26,0,0,1-.31.21l-.08,0-1.55-.36a.26.26,0,0,1-.25-.28.19.19,0,0,1,0-.08L72.28,76a.27.27,0,0,1,.33-.16l2,.44a.26.26,0,0,1,.23.29L75.25,87A.22.22,0,0,1,75.15,87.21Zm9.41-1.27a4.12,4.12,0,0,1-1.48,2.18,3,3,0,0,1-2.35.6l-3.15-.5a.34.34,0,0,1-.2-.13.25.25,0,0,1,0-.22L78.91,78A.24.24,0,0,1,79,77.8a.33.33,0,0,1,.23-.07l3.14.51a3,3,0,0,1,2.11,1.31,4.09,4.09,0,0,1,.74,2.53A16.89,16.89,0,0,1,84.56,85.94Zm19.85.14a3.66,3.66,0,0,1-4.79,1.29,3.9,3.9,0,0,1-1.72-2,17.17,17.17,0,0,1-1.11-4.1,4,4,0,0,1,.48-2.59,3.39,3.39,0,0,1,2.15-1.58,3.34,3.34,0,0,1,2.64.29,3.84,3.84,0,0,1,1.72,2,17.7,17.7,0,0,1,1.1,4.11A3.9,3.9,0,0,1,104.41,86.08Zm10.09-1a.23.23,0,0,1-.2.16l-1.78.19a.29.29,0,0,1-.34-.19l-1.69-3.4c-.06,0-.08-.05-.11-.05a.1.1,0,0,0-.07.07l-1,3.7a.33.33,0,0,1-.3.27l-1.77.19a.25.25,0,0,1-.24-.11.32.32,0,0,1,0-.28l1.67-5.27a.44.44,0,0,0,0-.32l-2.44-4.15a.34.34,0,0,1,0-.28.28.28,0,0,1,.22-.17L108,75.3a.3.3,0,0,1,.31.2l1.59,3s.06,0,.08,0a.1.1,0,0,0,.07-.07l.91-3.26a.34.34,0,0,1,.26-.26l1.71-.18a.2.2,0,0,1,.23.11.37.37,0,0,1,.06.29l-1.48,4.58a.4.4,0,0,0,0,.34l2.76,4.75A.3.3,0,0,1,114.5,85.11Z"/></g></g></svg>