<svg id="Layer_1" data-name="Layer 1" xmlns="http://www.w3.org/2000/svg" viewBox="0 0 127.56 19.7"><defs><style>.cls-1{fill:#fff;}</style></defs><g id="Layer_2" data-name="Layer 2"><g id="Layer_1-2" data-name="Layer 1-2"><path class="cls-1" d="M3,6.59.32,6a.48.48,0,0,1-.26-.18.42.42,0,0,1,0-.31l.47-2a.36.36,0,0,1,.18-.24A.48.48,0,0,1,1,3.17l8.56,2a.44.44,0,0,1,.26.18.37.37,0,0,1,0,.31l-.46,2a.41.41,0,0,1-.19.24.42.42,0,0,1-.34.1L6.2,7.34c-.13,0-.21,0-.25.16L3.5,18.06a.41.41,0,0,1-.2.25.36.36,0,0,1-.3.05L1,17.9a.48.48,0,0,1-.26-.18.42.42,0,0,1-.05-.31L3.16,6.85A.2.2,0,0,0,3,6.6Z"/><path class="cls-1" d="M15.33,5.76v5.12q0,.19.21.21h3.11a.18.18,0,0,0,.2-.16V5.76a.38.38,0,0,1,.15-.3.41.41,0,0,1,.28-.13h2a.42.42,0,0,1,.3.12.38.38,0,0,1,.12.29l.07,13.51a.4.4,0,0,1-.12.29.38.38,0,0,1-.29.12h-2a.36.36,0,0,1-.28-.12.47.47,0,0,1-.14-.29V14.14c0-.14-.07-.2-.21-.2h-3.1c-.14,0-.21.06-.21.2v5.11a.37.37,0,0,1-.16.3.55.55,0,0,1-.35.12H13a.36.36,0,0,1-.28-.12.46.46,0,0,1-.13-.29L12.46,5.78a.36.36,0,0,1,.12-.28.41.41,0,0,1,.29-.13h2.05a.33.33,0,0,1,.28.11A.49.49,0,0,1,15.33,5.76Z"/><path class="cls-1" d="M28,7.44l.56,2.38a.19.19,0,0,0,.21.17h0l4.48-1.06a.36.36,0,0,1,.3.05.41.41,0,0,1,.19.25l.47,2a.45.45,0,0,1,0,.3.46.46,0,0,1-.26.19l-4.47,1.06a.2.2,0,0,0-.17.21,0,0,0,0,1,0,0l.57,2.39a.18.18,0,0,0,.19.16h.06l4.72-1.11a.4.4,0,0,1,.3.06.45.45,0,0,1,.19.24l.47,2a.37.37,0,0,1-.05.31.41.41,0,0,1-.25.19L28.15,19a.4.4,0,0,1-.3-.06.47.47,0,0,1-.19-.25L24.55,5.5a.4.4,0,0,1,.06-.3.39.39,0,0,1,.25-.2l7.23-1.7a.36.36,0,0,1,.3.05.41.41,0,0,1,.19.25l.48,2a.46.46,0,0,1-.07.3.41.41,0,0,1-.24.19l-4.64,1.1a.18.18,0,0,0-.11.24Z"/><path class="cls-1" d="M56.49,4.59c.09,0,.15,0,.19-.16l1.21-4a.41.41,0,0,1,.44-.34l2.86.05a.36.36,0,0,1,.28.12.42.42,0,0,1,.12.3L61.35,14.1a.41.41,0,0,1-.13.28.42.42,0,0,1-.3.12h-2a.4.4,0,0,1-.29-.12.42.42,0,0,1-.12-.3L58.66,6a.11.11,0,0,0,0-.09A.14.14,0,0,0,58.5,6l-1,3a.43.43,0,0,1-.43.34H55.81A.46.46,0,0,1,55.39,9l-.93-3.09c0-.08-.07-.1-.11-.07a.11.11,0,0,0-.05.09L54.15,14a.36.36,0,0,1-.13.29.4.4,0,0,1-.29.12h-2a.37.37,0,0,1-.28-.13.46.46,0,0,1-.13-.29L51.53.4a.42.42,0,0,1,.14-.28A.45.45,0,0,1,52,0l2.86.05a.42.42,0,0,1,.43.36l1.07,4C56.34,4.53,56.39,4.59,56.49,4.59Z"/><path class="cls-1" d="M66.26,15.2l-2.1-.48a.35.35,0,0,1-.33-.38.36.36,0,0,1,0-.11L70.42,1.76a.35.35,0,0,1,.44-.22l2.68.6a.36.36,0,0,1,.31.39l.57,14.08a.29.29,0,0,1-.13.27.45.45,0,0,1-.36,0l-2.09-.47a.37.37,0,0,1-.31-.39l-.17-2.2c0-.21-.08-.33-.22-.36l-3-.68c-.16,0-.28,0-.36.23l-1,1.93a.36.36,0,0,1-.41.3Zm3.09-5,1.83.41c.15,0,.22,0,.22-.18l.11-5a.1.1,0,0,0-.08-.1h0a.11.11,0,0,0-.12.06l-2,4.57c-.14,0-.11.17,0,.2Z"/><path class="cls-1" d="M81.82,18.91l-4.25-.67a.44.44,0,0,1-.27-.17.4.4,0,0,1-.07-.3L79.36,4.43a.35.35,0,0,1,.16-.26.44.44,0,0,1,.31-.09l4.24.68a4.09,4.09,0,0,1,2.84,1.78,5.39,5.39,0,0,1,1,3.41A23,23,0,0,1,87,15.16a5.57,5.57,0,0,1-2,2.94A4,4,0,0,1,81.82,18.91Zm-1.17-3.09,1.62.26a1.56,1.56,0,0,0,1.2-.29,2,2,0,0,0,.72-1.08A23,23,0,0,0,85,9.5a2,2,0,0,0-.35-1.25,1.5,1.5,0,0,0-1-.66L82,7.34c-.13,0-.21,0-.23.17l-1.29,8.08a.17.17,0,0,0,.12.22Z"/><path class="cls-1" d="M104.16,5.34a4.55,4.55,0,0,1,2.89-2.12,4.5,4.5,0,0,1,3.57.38,5.19,5.19,0,0,1,2.32,2.71,23.64,23.64,0,0,1,1.49,5.54,5.28,5.28,0,0,1-.64,3.5,4.94,4.94,0,0,1-6.46,1.74A5.29,5.29,0,0,1,105,14.38a23.64,23.64,0,0,1-1.49-5.54A5.22,5.22,0,0,1,104.16,5.34ZM107.8,6a2,2,0,0,0-1.23.81,1.82,1.82,0,0,0-.25,1.29,23.72,23.72,0,0,0,1.49,5.55,1.86,1.86,0,0,0,.87,1,2.35,2.35,0,0,0,2.7-.73,1.91,1.91,0,0,0,.26-1.3,23.72,23.72,0,0,0-1.49-5.55,1.86,1.86,0,0,0-.87-1A2,2,0,0,0,107.8,6Z"/><path class="cls-1" d="M121.85,9.6h0a.14.14,0,0,0-.09.09l-1.37,5a.44.44,0,0,1-.4.36l-2.39.26a.39.39,0,0,1-.33-.15.43.43,0,0,1-.06-.38l2.25-7.11a.56.56,0,0,0,0-.44l-3.29-5.59a.42.42,0,0,1,0-.38.37.37,0,0,1,.29-.24L118.64.8a.43.43,0,0,1,.42.27l2.15,4c0,.06.07.08.11.07h0a.14.14,0,0,0,.09-.09l1.23-4.4c.07-.21.19-.33.35-.35L125.3.05a.3.3,0,0,1,.31.15.49.49,0,0,1,.08.39l-2,6.19a.51.51,0,0,0,0,.45l3.73,6.42a.45.45,0,0,1,0,.39.31.31,0,0,1-.27.22l-2.41.26a.4.4,0,0,1-.46-.26L122,9.67C121.92,9.62,121.89,9.6,121.85,9.6Z"/></g></g></svg>