<svg xmlns="http://www.w3.org/2000/svg" viewBox="0 0 179.11 160.03"><defs><style>.cls-1{fill:#fff;}</style></defs><g id="Layer_2" data-name="Layer 2"><g id="Layer_1-2" data-name="Layer 1"><path class="cls-1" d="M109.34,159.46c.49-1.11-.32-11.05,1.3-16.25s4.55-11.37-1.3-13-33.47-5.2-40-5.52-11.38-3.25-11.7,3.57a177.75,177.75,0,0,1-2.28,18.2c-.32,1.95-2.6,6.82,4.23,7.15s30.22,3.57,32.82,4.22S108.58,161.19,109.34,159.46Z"/><path class="cls-1" d="M103.82,132.3h-.11a1,1,0,0,1-.88-1.11c.5-4.44,2.89-11.51,5.2-18.34,1.66-4.94,3.23-9.6,3.82-12.5,1.43-7.13,3.66-23.39,1.46-28.2-1.59-3.47-8-6.74-17.73-9-4.27-1-7.71-.94-9.2.14a2,2,0,0,0-.87,1.54c-.31,3.35,1.23,6.08,3.84,6.77,2.08.56,12.53,3.52,13.89,7.35,1.17,3.27-.67,8.08-6.39,10.57-4.7,2-10.19,8.54-10.24,8.6a1,1,0,0,1-1.54-1.28c.24-.28,5.85-6.92,11-9.16,4.61-2,6.17-5.64,5.31-8.06-.7-2-7-4.6-12.53-6.08-3.59-1-5.72-4.54-5.31-8.9a4,4,0,0,1,1.69-3c2.57-1.86,7.3-1.28,10.82-.47,7.38,1.7,16.69,4.84,19.1,10.09,2.61,5.7-.07,23.17-1.32,29.42a127.4,127.4,0,0,1-3.89,12.75c-2.17,6.42-4.62,13.7-5.11,17.93A1,1,0,0,1,103.82,132.3Z"/><path class="cls-1" d="M110.68,68.91a1,1,0,0,1-.24,0,1,1,0,0,1-.73-1.21c.49-2,12-48.68,13.29-53.19a4.84,4.84,0,0,0-.06-3.72A4.35,4.35,0,0,0,120,9c-1.76-.44-4.7-1.18-7.25,7.12-2.33,7.58-9.59,28.37-11,32.46a2,2,0,0,1-2,1.33l-5.07-.33a2,2,0,0,1-1.76-1.34C91.17,43.18,78.27,5.86,77.32,3.41c-.88-2.29-4.32-1.18-5-.93-1.82.65-2.17,1.72,2.57,19.82,4,15.16,6.77,24.69,7.53,27.24A2,2,0,0,1,81.22,52l-3.79,1.45a1,1,0,1,1-.72-1.86l3.79-1.46C79.74,47.55,76.94,38,73,22.8,68.28,5,67.81,2,71.63.6c2.73-1,6.35-1,7.56,2.09,1,2.46,13.87,39.83,15.61,44.91l5.08.33c1.43-4.08,8.68-24.84,11-32.39,2.74-8.91,6.41-9.28,9.65-8.48a6.21,6.21,0,0,1,4.14,2.7,6.71,6.71,0,0,1,.26,5.27c-1.28,4.47-13.16,52.63-13.28,53.12A1,1,0,0,1,110.68,68.91Z"/><path class="cls-1" d="M81.31,78.54l-.6-.8c-.14-.18-13.91-18.46-18-23.59a6.66,6.66,0,0,1-1.58-5.23c.51-3.3,3.62-5.45,3.75-5.54l.21-.1c.07,0,7.17-2.62,11,5,3.43,6.87,11.62,24.11,11.71,24.28l.34.74ZM65.94,45.11a7.19,7.19,0,0,0-2.8,4.13,4.7,4.7,0,0,0,1.17,3.67C67.9,57.43,79,72.13,81.7,75.74l4-3c-1.61-3.38-8.32-17.48-11.34-23.51C71.53,43.61,66.76,44.85,65.94,45.11Z"/><path class="cls-1" d="M77.31,81.43c-.5,0-1.51-.69-14.19-10.88-3.89-3.13-7.25-5.83-6.42-9.38A12.09,12.09,0,0,1,63,52.67a1,1,0,0,1,1,1.71c-3.21,1.93-4.57,3.76-5.39,7.25-.51,2.17,1.82,4.23,5.72,7.36,8.82,7.09,11.86,9.43,12.9,10.2l3.62-2.84a1,1,0,0,1,1.23,1.58L77.7,81.39l-.28,0Z"/><path class="cls-1" d="M86.92,115.13l-.25,0c-1.59-.41-15.63-4.16-18-9.15C66.36,101.22,58,81.59,55.94,76.49c-1.91-4.7,1.74-8.82,3.94-10.33A1,1,0,0,1,61,67.8c-.21.14-5,3.55-3.23,7.93,2.07,5.1,10.38,24.65,12.65,29.35,1.7,3.52,12.65,7,16.73,8.08a1,1,0,0,1-.25,2Z"/><path class="cls-1" d="M69.54,128.13l-.14,0a1,1,0,0,1-.85-1.13l2.73-18.88a1,1,0,0,1,2,.29l-2.73,18.88A1,1,0,0,1,69.54,128.13Z"/><path class="cls-1" d="M147.45,99.43a1,1,0,0,1-.51-1.86L164.84,87,147.2,71.65a1,1,0,1,1,1.31-1.51L166.3,85.65a1.86,1.86,0,0,1,.63,1.57,1.89,1.89,0,0,1-.91,1.43L148,99.3A1,1,0,0,1,147.45,99.43ZM165,87.15h0Z"/><path class="cls-1" d="M159.62,99.61a1,1,0,0,1-.5-1.86L177,87.2,159.37,71.83a1,1,0,0,1,1.32-1.51l17.78,15.51a1.86,1.86,0,0,1-.27,3L160.13,99.47A.94.94,0,0,1,159.62,99.61Zm17.54-12.28h0Z"/><path class="cls-1" d="M31.13,91.23a1,1,0,0,1-.66-.26L12.8,75.33a1.85,1.85,0,0,1,.3-3L31.25,61.82a1,1,0,1,1,1,1.74L14.27,74,31.79,89.48a1,1,0,0,1,.09,1.41A1,1,0,0,1,31.13,91.23Z"/><path class="cls-1" d="M19,91a1,1,0,0,1-.66-.25L.63,75.06A1.87,1.87,0,0,1,0,73.48a1.84,1.84,0,0,1,.92-1.42L19.08,61.55a1,1,0,0,1,1,1.73L2.1,73.69,19.62,89.2a1,1,0,0,1,.08,1.42A1,1,0,0,1,19,91Z"/></g></g></svg>