<svg xmlns="http://www.w3.org/2000/svg" viewBox="0 0 133.51 142.97"><defs><style>.cls-1{fill:#fff;}</style></defs><g id="Layer_2" data-name="Layer 2"><g id="Layer_1-2" data-name="Layer 1"><path class="cls-1" d="M60.44,70.5,64,74.29c-.81.85-1.59,1.67-2.35,2.49-3.45,3.67-3.69,7.85-.19,11.53,6.12,6.44,12.44,12.69,18.69,19,2.63,2.66,5.37,5.21,8,7.9a5.63,5.63,0,0,0,6.28,1.64c4-1.17,8-2.12,12-3,3.17-.65,5.29.91,5,4.08a20.45,20.45,0,0,1-2.5,8.15C104.3,134,98.3,140.36,89,142.62a12.17,12.17,0,0,1-2.69.35c-3.53.05-4.4-.95-3.65-4.35.88-4,1.72-8,2.87-11.85a7.52,7.52,0,0,0-1.05-7.06,46.92,46.92,0,0,0-4.75-5.41C73.22,108,66.52,101.9,60.19,95.44A38.41,38.41,0,0,1,54,86.56c-2-3.84-.92-7.61,1.77-10.86C57.14,74,58.72,72.38,60.44,70.5Zm35.27,64.9c.85-.52,1.66-.93,2.38-1.47a32.51,32.51,0,0,0,8.89-11.2c.37-.7.07-1.74.08-2.62a8,8,0,0,0-2.27,1.38c-2.5,3.07-4.84,6.27-7.31,9.35-.72.9-1.75,1.54-2.54,2.38a1.63,1.63,0,0,0-.39,1.31C94.66,134.88,95.24,135.07,95.71,135.4Z"/><path class="cls-1" d="M71.27,94.27c-1.3-1.33-2.39-2.44-3.55-3.64,1.2-1.47,2.37-2.84,3.48-4.26a7.2,7.2,0,0,0,.66-8.4,18.73,18.73,0,0,0-3-4.24C64.48,69.29,60,65,55.54,60.61a6.16,6.16,0,0,0-7.4-1.55c-5.88,2.34-11.2,1.08-15.78-3.38C23.25,46.81,14.05,38.05,5,29.11,2.46,26.6-.75,24,.16,19.86a19.89,19.89,0,0,1,3.32-7.33,30.54,30.54,0,0,1,11.91-9.6c2.62-1.24,5.19-1.25,7.41.78,6.92,6.35,13.85,12.67,20.62,19.16,4.18,4,8.12,8.28,12.09,12.5a22.4,22.4,0,0,1,2,3.14c2.54,3.84,2.57,7.7.39,11.75-1.83,3.42-1.68,3.65,1,6.45,4.92,5.07,10,10,14.7,15.25,6.54,7.25,6.44,12.35,0,19.67C73,92.43,72.24,93.21,71.27,94.27ZM56.85,44.06c-.31-.92-.48-2.72-1.42-3.94a97.54,97.54,0,0,0-9-10.58c-7.89-7.72-16-15.17-24.09-22.73-1.74-1.62-3.56-2.64-6.05-1.52A26.78,26.78,0,0,0,3.21,17.34c-1.59,3-1.31,5,1,7.49,2.66,2.85,5.41,5.62,8.21,8.33,7.4,7.16,14.75,14.37,22.3,21.37A11.71,11.71,0,0,0,48.4,56.67C53.16,54.38,56.18,50.35,56.85,44.06Z"/><path class="cls-1" d="M59.27,99l3.78,3.53c-4.37,4.63-8.41,9.27-12.85,13.49-3,2.87-3.9,5.65-2.38,9.62a75.94,75.94,0,0,1,2.73,10.6c.69,3.08-.5,4.42-3.65,4.8-4.24.5-7.61-1.52-10.83-3.71a40.06,40.06,0,0,1-12.65-13.22,23.25,23.25,0,0,1-2.37-8.47c-.33-2.63.84-3.58,3.44-3.14a98.13,98.13,0,0,1,11.39,2.55c4.14,1.23,7.33.21,10.37-2.75,4.4-4.28,9-8.3,13.6-12.43ZM44.39,138.12l1.61-.78c-.32-.58-.51-1.46-1-1.69A40,40,0,0,1,32.62,127c-.45-.49-1.53-.4-2.31-.58.15.81,0,2,.5,2.36,3.4,2.76,6.9,5.4,10.44,8A16.25,16.25,0,0,0,44.39,138.12Z"/><path class="cls-1" d="M72.93,66.61l-4.19-4.15c2.89-2.66,5.49-5.2,8.26-7.55,1.36-1.16,1.51-1.95.45-3.48-3.21-4.62-3.9-9.62-.57-14.4a97.34,97.34,0,0,1,9.61-12c7.31-7.6,15-14.84,22.41-22.32,2.93-2.95,6-3.52,9.67-1.66A35.24,35.24,0,0,1,131.33,12c3,4.09,3,8.05-.37,11.79-6.75,7.55-13.8,14.83-20.8,22.15-3,3.18-6.16,6.31-9.46,9.22-4.48,4-9.63,5-15.24,2.54-2-.89-3.67-.68-5.16,1C78,61.19,75.57,63.74,72.93,66.61Zm58.53-48.45a38.38,38.38,0,0,0-1.88-4.33,25.38,25.38,0,0,0-10.29-9.52c-4.7-2.47-5.84-2.33-9.62,1.36C104.08,11.12,98.4,16.49,93,22.12,88.4,26.89,84,31.9,79.78,37a9.67,9.67,0,0,0-2.12,7.68c.56,4.43,3.18,7.07,6.64,9.37,5.35,3.56,11.11,3.3,15.63-1.3q14.85-15.09,29.44-30.46C130.38,21.21,130.77,19.56,131.46,18.16Z"/><path class="cls-1" d="M7,21.41a7.29,7.29,0,0,1,1.27-.58c5.15-1.16,8.55-4.46,11.16-8.85.43-.72,1.36-1.15,2.05-1.72.05,1,.47,2.13.08,2.84C19,17.82,15.31,21.4,10,23,8.68,23.41,7.56,23.27,7,21.41Z"/><path class="cls-1" d="M124.34,21a34.19,34.19,0,0,1-4.53-1.81,19.89,19.89,0,0,1-8.32-8.33c-.33-.65,0-1.64.07-2.47.68.41,1.63.66,2,1.26,2.71,4.31,6.12,7.61,11.31,8.68.54.12.94.91,1.41,1.39Z"/></g></g></svg>